<?xml version="1.0" encoding="UTF-8" standalone="no"?>
<!DOCTYPE svg PUBLIC "-//W3C//DTD SVG 1.1//EN" "http://www.w3.org/Graphics/SVG/1.1/DTD/svg11.dtd">
<svg width="100%" height="100%" viewBox="0 0 104 99" version="1.1" xmlns="http://www.w3.org/2000/svg" xmlns:xlink="http://www.w3.org/1999/xlink" xml:space="preserve" xmlns:serif="http://www.serif.com/" style="fill-rule:evenodd;clip-rule:evenodd;stroke-linejoin:round;stroke-miterlimit:2;">
    <g transform="matrix(1,0,0,1,-286.604138,-753.34404)">
        <g transform="matrix(0.849595,0,0,0.849595,9.773197,111.160458)">
            <g transform="matrix(0.228383,0,0,0.228383,322.459882,102.139457)">
                <g transform="matrix(4.166667,0,0,4.166667,-1045.08647,2226.12076)">
                    <path d="M341.502,274.732C328.743,274.408 330.114,269.674 330.078,253.499C330.04,236.206 328.644,229.68 343.5,229.487C373.602,229.096 374.107,229.404 376.35,230.776C382.682,234.647 381.73,238.519 381.732,260.5C381.733,264.046 382.689,272.278 375.468,274.368C373.736,274.869 373.693,274.66 341.502,274.732Z" style="fill:rgb(89,138,101);"/>
                </g>
                <g transform="matrix(4.166667,0,0,4.166667,-1045.08647,2226.12076)">
                    <path d="M377.063,264.487C376.487,271.572 373.448,270.26 353.5,270.329C339.251,270.378 334.894,271.331 334.765,265.488C334.716,263.259 334.204,240.05 334.911,237.611C336.278,232.896 339.412,233.863 358.502,233.645C373.462,233.474 374.157,234.052 375.186,234.908C377.088,236.489 377.227,236.877 377.063,264.487Z" style="fill:rgb(112,153,166);"/>
                </g>
                <g transform="matrix(4.166667,0,0,4.166667,-1045.08647,2226.12076)">
                    <path d="M312.695,234.537C312.647,236.526 312.598,238.515 312.549,240.504C312.548,241.837 312.546,243.17 312.545,244.504C312.537,245.836 312.529,247.169 312.522,248.502C312.424,253.024 312.322,258.079 311.683,263.524C310.896,270.223 307.357,267.832 306.697,266.426C305.247,263.336 314.687,227.625 307.328,218.634C302.622,212.884 287.54,206.682 284.442,205.658C282.364,204.971 281.493,204.482 282.966,202.897C285.201,200.493 285.57,200.632 287.503,201.493C297.174,205.8 305.566,209.449 310.796,215.248C312.578,217.225 313.467,219.871 314.804,217.795C317.554,213.523 320.321,210.037 339.605,201.763C342.753,200.413 343.009,201.926 344.632,203.411C345.383,204.098 344.869,204.226 344.873,204.625C344.874,204.797 345.214,204.929 345.125,205.076C344.501,206.1 343.852,204.906 335.279,209.025C315.932,218.321 316.229,221.387 317.662,238.487C319.68,262.577 321.999,267.113 318.611,267.957C315.238,268.798 314.942,264.616 314.796,248.474C314.762,247.144 314.729,245.813 314.696,244.483C314.653,243.153 314.61,241.822 314.568,240.491C314.518,238.499 314.469,236.508 314.42,234.517C314.42,233.98 314.425,228.07 314.243,227.806C312.646,225.486 312.7,234.418 312.695,234.537Z" style="fill:rgb(89,138,101);"/>
                </g>
                <g transform="matrix(4.166667,0,0,4.166667,-1045.08647,2226.12076)">
                    <path d="M344.481,250.52C335.391,240.973 352.515,234.741 361.465,237.626C382.289,244.338 358.919,262.744 344.481,250.52Z" style="fill:rgb(89,138,101);"/>
                </g>
                <g transform="matrix(4.166667,0,0,4.166667,-1045.08647,2226.12076)">
                    <path d="M281.383,187.46C281.738,187.488 281.714,187.138 285.395,187.837C293.97,189.464 310.109,198.115 339.616,188.844C340.098,188.693 344.291,187.471 344.498,187.516C345.041,187.634 345.247,188.452 345.79,188.57C345.238,189.346 343.826,193.264 332.395,196.075C325.775,197.703 315.64,198.377 311.524,198.072C282.131,195.897 281.951,189.146 281.383,187.46Z" style="fill:rgb(89,138,101);"/>
                </g>
                <g transform="matrix(4.166667,0,0,4.166667,-1045.08647,2226.12076)">
                    <path d="M275.774,232.443C281.419,257.453 282.744,257.051 284.446,264.514C285.208,267.858 281.304,270.543 279.305,264.564C273.66,247.684 264.561,212.057 270.567,209.668C272.116,209.052 272.163,208.643 273.654,209.372C275.319,210.186 271.447,211.264 275.774,232.443Z" style="fill:rgb(89,138,101);"/>
                </g>
                <g transform="matrix(4.166667,0,0,4.166667,-1045.08647,2226.12076)">
                    <path d="M263.348,196.774C263.271,196.728 258.346,194.561 255.636,189.427C255.391,188.964 252.42,183.336 256.54,182.943C260.473,182.569 257.144,188.678 267.625,193.108C272.175,195.032 269.194,190.244 268.827,188.435C267.99,184.301 272.233,181.688 273.848,187.414C275.321,192.637 278.241,194.357 279.067,196.651C280.476,200.567 271.107,204.297 267.42,205.045C263.004,205.94 260.951,200.726 266.837,199.911C271.347,199.286 265.523,197.83 263.348,196.774Z" style="fill:rgb(112,153,166);"/>
                </g>
                <g transform="matrix(4.166667,0,0,4.166667,-1045.08647,2226.12076)">
                    <path d="M360.529,205.075C359.78,204.906 356.152,204.787 350.681,201.236C345.367,197.787 349.563,195.655 352.354,190.428C353.675,187.955 353.88,182.665 357.59,184.356C359.79,185.359 357.633,190.945 357.428,191.477C355.456,196.584 362.281,191.933 362.624,191.699C366.758,188.883 366.871,187.392 368.472,184.483C369.997,181.713 374.762,183.099 371.882,188.683C367.959,196.288 362.421,197.435 360.272,198.179C356.194,199.59 361.342,200.336 361.542,200.365C361.86,200.411 364.95,200.859 363.845,203.666C363.109,205.533 362.518,204.795 360.529,205.075Z" style="fill:rgb(112,153,166);"/>
                </g>
                <g transform="matrix(4.166667,0,0,4.166667,-1045.08647,2226.12076)">
                    <path d="M345.048,185.144C342.914,185.662 343.107,186.103 342.92,186.121C342.529,186.158 341.884,185.4 341.813,185.317C340.657,183.958 332.903,150.28 341.427,152.856C344.952,153.921 341.34,158.042 342.525,165.496C344.965,180.836 347.723,182.76 345.048,185.144Z" style="fill:rgb(89,138,101);"/>
                </g>
                <g transform="matrix(4.166667,0,0,4.166667,-1045.08647,2226.12076)">
                    <path d="M282.757,185.045C282.425,184.754 281.914,184.726 281.582,184.435C278.897,182.079 287.029,172.047 284.298,156.542C283.546,152.278 288.115,150.863 289.51,156.498C291.427,164.238 286.289,184.315 285.018,185.085C284.81,185.21 282.937,185.06 282.757,185.045Z" style="fill:rgb(89,138,101);"/>
                </g>
                <g transform="matrix(4.166667,0,0,4.166667,-1045.08647,2226.12076)">
                    <path d="M360.24,242.536C358.296,242.689 357.536,243.126 354.586,247.559C354.52,247.659 353.108,252.763 347.563,248.417C340.209,242.651 358.265,236.071 365.18,243.77C369.251,248.302 355.362,253.039 356.727,249.547C356.85,249.231 356.859,249.278 359.456,245.468C360.748,243.573 360.234,243.411 360.24,242.536Z" style="fill:rgb(251,251,251);"/>
                </g>
                <g transform="matrix(4.166667,0,0,4.166667,-1045.08647,2226.12076)">
                    <path d="M358.12,213.504C358.175,222.056 358.92,225.202 355.465,224.838C352.936,224.57 353.606,222.816 353.377,214.502C353.356,213.754 352.443,208.245 356.424,209.777C358.566,210.601 357.972,211.196 358.12,213.504Z" style="fill:rgb(89,138,101);"/>
                </g>
                <g transform="matrix(4.166667,0,0,4.166667,-1045.08647,2226.12076)">
                    <path d="M313.175,181.46C313.393,181.22 313.372,180.821 313.59,180.581C313.701,180.458 314.303,179.795 315.636,180.285C317.608,181.01 315.039,184.605 313.421,182.554C313.189,182.261 313.407,181.753 313.175,181.46Z" style="fill:rgb(89,138,101);"/>
                </g>
            </g>
        </g>
    </g>
</svg>
