<?xml version="1.0" encoding="UTF-8" standalone="no"?>
<!DOCTYPE svg PUBLIC "-//W3C//DTD SVG 1.1//EN" "http://www.w3.org/Graphics/SVG/1.1/DTD/svg11.dtd">
<svg width="100%" height="100%" viewBox="0 0 104 101" version="1.1" xmlns="http://www.w3.org/2000/svg" xmlns:xlink="http://www.w3.org/1999/xlink" xml:space="preserve" xmlns:serif="http://www.serif.com/" style="fill-rule:evenodd;clip-rule:evenodd;stroke-linejoin:round;stroke-miterlimit:2;">
    <g transform="matrix(1,0,0,1,-759.897665,-751.221789)">
        <g transform="matrix(0.849595,0,0,0.849595,9.773197,111.160458)">
            <g transform="matrix(0.240223,0,0,0.240223,596.593695,59.38412)">
                <g transform="matrix(4.166667,0,0,4.166667,-1330.820413,2258.059124)">
                    <path d="M632.725,257.31C637.443,262.766 640.708,264.76 637.773,266.935C635.969,268.272 633.966,265.904 629.214,260.754C607.532,237.26 633.896,218.957 643.807,238.355C646.199,243.037 650.058,258.854 678.496,259.753C688.385,260.066 704.472,256.438 713.102,246.152C733.383,221.981 719.009,183.344 693.508,183.11C687.003,183.051 682.537,183.982 681,164.535C680.956,163.97 680.495,158.13 682.538,157.617C687.851,156.282 683.942,168.061 688.384,176.566C690.833,181.254 694.613,173.86 710.363,183.699C737.761,200.815 735.785,264.808 678.5,264.567C645.248,264.427 639.588,240.483 638.294,238.634C632.006,229.652 619.186,238.853 629.704,253.356C631.168,255.374 631.119,255.377 632.725,257.31Z" style="fill:rgb(89,138,101);"/>
                </g>
                <g transform="matrix(4.166667,0,0,4.166667,-1330.820413,2258.059124)">
                    <path d="M616.459,218.449C627.063,210.991 636.706,211.278 646.782,217.018C647.75,217.569 654.857,221.617 660.49,219.47C679.86,212.088 665.553,185.799 665.263,161.499C665.195,155.817 669.796,156.71 670.051,160.529C671.229,178.219 672.193,178.061 675.034,195.573C675.423,197.966 678.596,217.526 663.552,223.627C653.407,227.741 643.168,220.6 642.6,220.307C628.262,212.91 614.572,222.869 611.369,234.462C606.568,251.843 618.828,263.372 620.156,265.69C621.133,267.397 620.022,269.32 618.493,269.409C613.407,269.706 593.107,237.987 616.459,218.449Z" style="fill:rgb(89,138,101);"/>
                </g>
                <g transform="matrix(4.166667,0,0,4.166667,-1330.820413,2258.059124)">
                    <path d="M611.423,182.897C608.11,182.298 607.545,183.024 606.882,181.318C605.57,177.938 611.222,177.737 611.539,177.658C623.215,174.734 619.804,162.892 622.664,161.86C626.1,160.621 625.818,166.312 626.427,168.52C629.86,180.962 640.315,175.626 639.926,180.547C639.784,182.337 636.862,182.776 636.539,182.824C622.602,184.916 627.927,197.896 623.482,198.043C618.493,198.208 625.317,187.022 611.423,182.897Z" style="fill:rgb(89,138,101);"/>
                </g>
                <g transform="matrix(4.166667,0,0,4.166667,-1330.820413,2258.059124)">
                    <path d="M715.108,159.679C719.183,166.9 727.143,162.625 725.548,167.521C724.719,170.064 715.03,167.258 714.105,177.452C714.072,177.807 713.745,181.413 711.525,181.085C707.48,180.488 711.688,170.957 701.54,169.283C699.422,168.934 698.777,169.716 698.011,167.713C695.958,162.342 707.199,167.837 709.095,156.432C709.572,153.558 709.122,153.337 710.266,152.234C713.317,149.294 714.035,155.138 714.084,155.538C714.348,157.681 714.4,157.624 715.108,159.679Z" style="fill:rgb(89,138,101);"/>
                </g>
                <g transform="matrix(4.166667,0,0,4.166667,-1330.820413,2258.059124)">
                    <path d="M671.163,231.616C674.22,239.33 681.166,235.401 679.467,239.485C678.537,241.721 672.741,239.081 670.68,246.543C668.786,253.399 666.843,247.763 666.789,247.448C665.29,238.695 659.811,241.709 659.939,238.507C660.047,235.78 664.959,238.603 666.973,229.602C667.955,225.216 670.172,227.712 670.398,228.538C670.464,228.783 670.454,228.766 671.163,231.616Z" style="fill:rgb(89,138,101);"/>
                </g>
                <g transform="matrix(4.166667,0,0,4.166667,-1330.820413,2258.059124)">
                    <path d="M640.77,190.539C641.162,188.895 640.815,188.173 642.52,188.29C643.822,188.379 644.157,191.247 644.191,191.537C644.997,198.452 651.747,196.904 652.233,198.599C653.156,201.816 646.449,198.719 643.954,205.658C643.853,205.938 641.472,212.561 640.235,205.537C639.129,199.255 633.609,201.386 635.02,198.254C636.067,195.929 639.57,198.15 640.77,190.539Z" style="fill:rgb(89,138,101);"/>
                </g>
                <g transform="matrix(4.166667,0,0,4.166667,-1330.820413,2258.059124)">
                    <path d="M626.381,183.385C625.903,183.937 625.915,183.899 625.45,184.459C624.219,185.943 624.403,186.256 623.478,186.284C621.637,186.339 622.7,184.65 618.408,181.617C616.656,180.378 616.653,179.615 618.521,178.528C621.454,176.821 622.084,173.884 623.457,173.894C624.979,173.905 624.038,175.678 628.959,179.085C630.846,180.391 629.141,180.729 626.381,183.385Z" style="fill:rgb(112,153,166);"/>
                </g>
                <g transform="matrix(4.166667,0,0,4.166667,-1330.820413,2258.059124)">
                    <path d="M709.444,241.451C700.768,251.625 694.871,249.549 696.538,246.523C696.918,245.832 703.641,242.859 707.118,238.197C708.927,235.772 708.401,234.871 710.508,234.801C711.047,234.783 714.252,235.392 709.444,241.451Z" style="fill:rgb(89,138,101);"/>
                </g>
                <g transform="matrix(4.166667,0,0,4.166667,-1330.820413,2258.059124)">
                    <path d="M701.538,220.572C700.791,220.84 695.079,222.89 691.696,219.315C689.704,217.212 691.563,215.177 693.346,215.924C695.505,216.829 696.72,218.845 700.578,216.628C705.281,213.926 704.252,218.303 703.273,219.294C703.152,219.417 703.145,219.389 701.538,220.572Z" style="fill:rgb(89,138,101);"/>
                </g>
                <g transform="matrix(4.166667,0,0,4.166667,-1330.820413,2258.059124)">
                    <path d="M711.473,204.539C711.788,204.815 715.238,207.848 713.416,209.405C711.557,210.993 708.709,205.298 705.777,207.874C704.206,209.254 704.448,210.346 702.445,209.596C701.185,209.124 701.708,206.057 704.505,204.508C708.518,202.285 711.394,204.505 711.473,204.539Z" style="fill:rgb(89,138,101);"/>
                </g>
                <g transform="matrix(4.166667,0,0,4.166667,-1330.820413,2258.059124)">
                    <path d="M689.697,204.021C690.1,204.244 694.439,206.641 692.94,208.765C691.033,211.469 688.864,205.544 685.593,207.653C685.171,207.926 682.935,210.552 681.566,209.421C680.575,208.604 681.332,205.854 683.552,204.58C686.977,202.613 689.498,203.974 689.697,204.021Z" style="fill:rgb(89,138,101);"/>
                </g>
                <g transform="matrix(4.166667,0,0,4.166667,-1330.820413,2258.059124)">
                    <path d="M709.732,164.72C711.588,162.523 712.194,163.342 712.842,164.123C713.31,164.686 715.734,166.377 714.087,168.096C712.347,169.912 711.868,170.739 710.123,168.894C708.821,167.517 707.185,167.055 709.732,164.72Z" style="fill:rgb(112,153,166);"/>
                </g>
                <g transform="matrix(4.166667,0,0,4.166667,-1330.820413,2258.059124)">
                    <path d="M670.2,236.778C673.097,239.684 669.089,242.339 667.415,240.598C665.516,238.624 665.829,238.126 667.419,236.409C669.062,234.635 669.992,236.647 670.2,236.778Z" style="fill:rgb(112,153,166);"/>
                </g>
                <g transform="matrix(4.166667,0,0,4.166667,-1330.820413,2258.059124)">
                    <path d="M689.196,249.557C688.645,251.045 689.151,251.676 687.55,251.856C684.504,252.197 684.811,247.681 687.458,247.961C688.128,248.032 688.49,248.364 688.561,248.429C689.059,248.887 688.699,249.101 689.196,249.557Z" style="fill:rgb(89,138,101);"/>
                </g>
            </g>
        </g>
    </g>
</svg>
