<?xml version="1.0" encoding="UTF-8" standalone="no"?>
<!DOCTYPE svg PUBLIC "-//W3C//DTD SVG 1.1//EN" "http://www.w3.org/Graphics/SVG/1.1/DTD/svg11.dtd">
<svg width="100%" height="100%" viewBox="0 0 91 106" version="1.1" xmlns="http://www.w3.org/2000/svg" xmlns:xlink="http://www.w3.org/1999/xlink" xml:space="preserve" xmlns:serif="http://www.serif.com/" style="fill-rule:evenodd;clip-rule:evenodd;stroke-linejoin:round;stroke-miterlimit:2;">
    <g transform="matrix(1,0,0,1,-517.045037,-742.143362)">
        <g transform="matrix(0.849595,0,0,0.849595,9.773197,111.160458)">
            <g transform="matrix(0.23097,0,0,0.23097,500.381914,84.363778)">
                <g transform="matrix(4.166667,0,0,4.166667,-1355.505797,2243.631647)">
                    <path d="M438.479,205.588C440.554,206.644 440.524,206.681 440.72,206.729C441.327,206.877 440.527,205.756 446.125,201.08C448.678,198.947 452.746,194.205 462.515,195.357C463.172,195.435 463.14,195.562 470.542,197.367C477.164,198.982 476.231,200.549 479.6,206.434C481.325,209.447 480.088,211.942 483.432,211.164C497.482,207.896 501.345,201.834 502.279,200.369C502.674,199.75 502.626,199.772 503.005,199.188C505.849,194.804 506.811,200.802 508.681,203.374C514.868,211.879 520.28,208.992 525.366,223.549C526.163,225.83 529.735,225.694 530.244,222.461C531.188,216.451 532.675,189.083 509.511,189.73C504.967,189.857 500.255,182.395 486.442,185.213C474.217,187.706 470.817,195.465 468.583,194.312C462.863,191.364 487.732,174.031 504.739,184.091C512.524,188.696 514.897,183.054 523.37,189.666C536.614,200.001 534.506,219.715 534.212,222.462C533.82,226.131 533.807,226.178 535.305,229.577C537.031,233.493 535.703,242.73 528.552,245.622C524.084,247.429 526.649,250.426 521.938,258.734C508.328,282.737 472.787,278.991 464.768,250.419C463.918,247.39 464.424,246.752 461.457,245.613C455.973,243.506 449.708,233.301 457.352,225.353C458.734,223.917 458.865,223.308 460.599,224.297C460.89,224.463 464.599,226.577 464.775,224.57C464.922,222.889 459.34,219.631 456.716,220.974C451.948,223.415 453.069,226.169 444.532,226.822C440.187,227.154 430.53,241.644 428.344,237.627C427.125,235.388 429.684,232.791 437.381,226.347C443.189,221.484 444.776,223.278 447.355,222.128C454.108,219.115 454.474,213.611 464.766,219.039C465.117,219.224 471.217,222.442 469.677,218.394C468.77,216.011 451.3,212.789 455.891,208.94C459.584,205.843 472.396,215.783 474.357,215.15C478.473,213.821 466.95,207.104 460.445,205.823C460.122,205.759 456.918,205.128 456.554,204.468C455.714,202.947 457.081,199.557 468.351,203.901C471.743,205.208 471.803,206.084 473.219,205.12C476.233,203.069 461.235,196.194 453.604,200.692C447.357,204.374 445.337,207.9 439.714,209.998C439.514,209.496 438.402,209.787 438.684,207.418C438.83,206.189 438.501,205.784 438.479,205.588Z" style="fill:rgb(89,138,101);"/>
                </g>
                <g transform="matrix(4.166667,0,0,4.166667,-1355.505797,2243.631647)">
                    <path d="M509.472,209.53C520.911,218.742 521.412,220.182 522.423,228.509C523.134,234.374 529.241,225.34 531.684,230.398C532.298,231.669 534.082,240.954 525.482,242.357C520.626,243.149 524.003,248.358 518.053,258.219C508.964,273.284 484.516,275.461 472.896,259.219C467.005,250.986 468.326,243.324 465.466,242.606C463.926,242.219 459.326,242.776 457.784,234.457C457.122,230.89 458.734,226.716 463.292,229.816C468.575,233.408 466.337,225.368 468.471,224.427C468.576,224.381 471.247,224.042 472.236,223.165C472.748,222.711 473.176,222.169 473.685,221.712C474.407,221.062 477.022,220.597 478.227,218.367C480.084,214.931 480.748,215.601 484.532,214.621C503.164,209.796 502.772,201.728 506.041,205.864C507.614,207.856 507.617,207.791 509.472,209.53Z" style="fill:rgb(252,252,252);"/>
                </g>
                <g transform="matrix(4.166667,0,0,4.166667,-1355.505797,2243.631647)">
                    <path d="M467.814,152.401C468.759,155.605 468.48,157.665 472.48,156.434C478.392,154.615 477.781,159.745 481.441,170.521C481.542,170.819 482.589,173.902 481.474,174.448C477.747,176.273 476.428,161.038 469.6,163.751C462.367,166.625 464.904,160.875 460.85,154.272C460.362,153.477 459.246,151.577 463.587,149.709C466.932,148.27 467.765,152.277 467.814,152.401Z" style="fill:rgb(112,153,166);"/>
                </g>
                <g transform="matrix(4.166667,0,0,4.166667,-1355.505797,2243.631647)">
                    <path d="M495.224,149.417C495.182,149.56 493.224,154.366 494.542,155.438C495.509,156.226 500.665,154.266 499.739,158.555C499.484,159.741 496.08,172.528 495.277,173.256C491.039,177.1 494.596,163.831 492.763,162.189C491.154,160.748 484.535,163.47 485.923,157.6C488.462,146.86 488.558,146.789 489.321,146.224C489.512,146.083 496.547,143.913 495.484,148.496C495.412,148.807 495.296,149.106 495.224,149.417Z" style="fill:rgb(112,153,166);"/>
                </g>
                <g transform="matrix(4.166667,0,0,4.166667,-1355.505797,2243.631647)">
                    <path d="M515.532,173.53C514.775,174.36 510.32,180.167 509.469,177.517C508.46,174.376 516.64,167.984 513.186,165.961C510.717,164.515 506.314,164.012 510.433,159.44C514.821,154.571 516.469,150.333 519.499,151.502C521.871,152.418 525.787,153.239 521.827,156.859C518.668,159.747 517.458,161.075 519.612,162.318C520.259,162.692 520.949,162.988 521.6,163.355C524.483,164.978 520.92,167.775 515.532,173.53Z" style="fill:rgb(112,153,166);"/>
                </g>
                <g transform="matrix(4.166667,0,0,4.166667,-1355.505797,2243.631647)">
                    <path d="M494.484,254.187C495.148,254.195 499.758,254.257 502.435,256.578C504.225,258.131 503.602,260.973 499.689,259.095C491.279,255.059 486.805,262.805 486.516,258.498C486.303,255.321 493.766,254.286 494.484,254.187Z" style="fill:rgb(89,138,101);"/>
                </g>
                <g transform="matrix(4.166667,0,0,4.166667,-1355.505797,2243.631647)">
                    <path d="M516.512,236.516C505.633,243.992 497.025,231.557 503.604,233.155C504.303,233.325 508.291,237.214 513.386,234.293C515.704,232.965 515.608,232.765 516.498,232.758C518.186,232.745 518.06,234.28 518.045,234.463C517.992,235.104 516.661,236.375 516.512,236.516Z" style="fill:rgb(89,138,101);"/>
                </g>
                <g transform="matrix(4.166667,0,0,4.166667,-1355.505797,2243.631647)">
                    <path d="M438.479,205.588C438.501,205.784 438.83,206.189 438.684,207.418C438.402,209.787 439.514,209.496 439.714,209.998C432.286,212.312 426.573,215.372 425.86,212.375C425.8,212.122 425.414,210.498 427.539,209.58C432.911,207.261 432.802,207.037 438.479,205.588Z" style="fill:rgb(89,138,101);"/>
                </g>
                <g transform="matrix(4.166667,0,0,4.166667,-1355.505797,2243.631647)">
                    <path d="M485.591,237.681C484.633,238.054 477.7,240.751 472.831,236.147C471.234,234.636 471.945,231.488 475.384,233.685C483.921,239.137 488.782,229.164 488.73,234.492C488.718,235.681 485.893,237.488 485.591,237.681Z" style="fill:rgb(89,138,101);"/>
                </g>
                <g transform="matrix(4.166667,0,0,4.166667,-1355.505797,2243.631647)">
                    <path d="M446.493,184.508C446.662,184.65 451.721,188.107 450.008,190.068C448.139,192.207 439.254,184.892 442.347,183.299C443.733,182.585 444.745,183.178 446.493,184.508Z" style="fill:rgb(89,138,101);"/>
                </g>
                <g transform="matrix(4.166667,0,0,4.166667,-1355.505797,2243.631647)">
                    <path d="M484.615,225.133C485.118,225.342 489.096,226.332 488.507,228.503C487.969,230.488 483.829,227.901 480.382,226.747C476.311,225.385 478.383,224.003 478.644,223.989C479.957,223.919 484.144,225.01 484.615,225.133Z" style="fill:rgb(89,138,101);"/>
                </g>
                <g transform="matrix(4.166667,0,0,4.166667,-1355.505797,2243.631647)">
                    <path d="M503.644,225.911C509.544,224.174 509.492,223.988 510.6,224.093C515.87,224.594 509.827,226.667 509.613,226.74C506.724,227.731 502.004,230.621 501.455,228.519C500.95,226.587 501.855,226.834 503.644,225.911Z" style="fill:rgb(89,138,101);"/>
                </g>
                <g transform="matrix(4.166667,0,0,4.166667,-1355.505797,2243.631647)">
                    <path d="M457.967,182.499C458.103,184.332 458.573,187.401 456.498,187.438C453.158,187.498 454.203,177.16 457.247,178.897C457.962,179.304 457.967,182.205 457.967,182.499Z" style="fill:rgb(89,138,101);"/>
                </g>
                <g transform="matrix(4.166667,0,0,4.166667,-1355.505797,2243.631647)">
                    <path d="M495.483,241.776C501.907,243.523 497.893,245.8 497.531,245.822C497.279,245.838 495.164,245.253 494.484,245.339C491.978,245.656 491.934,245.84 491.499,245.501C491.155,245.233 488.81,242.65 495.483,241.776Z" style="fill:rgb(89,138,101);"/>
                </g>
            </g>
        </g>
    </g>
</svg>
