<?xml version="1.0" encoding="UTF-8" standalone="no"?>
<!DOCTYPE svg PUBLIC "-//W3C//DTD SVG 1.1//EN" "http://www.w3.org/Graphics/SVG/1.1/DTD/svg11.dtd">
<svg width="100%" height="100%" viewBox="0 0 87 101" version="1.1" xmlns="http://www.w3.org/2000/svg" xmlns:xlink="http://www.w3.org/1999/xlink" xml:space="preserve" xmlns:serif="http://www.serif.com/" style="fill-rule:evenodd;clip-rule:evenodd;stroke-linejoin:round;stroke-miterlimit:2;">
    <g transform="matrix(1,0,0,1,-98.804805,-747.874429)">
        <g transform="matrix(0.849595,0,0,0.849595,9.773197,111.160458)">
            <g transform="matrix(0.221162,0,0,0.221162,85.376524,139.247461)">
                <g transform="matrix(4.166667,0,0,4.166667,-278.011136,2163.254036)">
                    <path d="M194.468,239.456C191.706,240.962 190.107,240.36 190.823,243.414C195.41,262.966 164.298,260.897 162.992,264.675C162.979,264.714 163.315,271.395 156.523,271.142C153.463,271.028 142.908,267.66 140.445,268.269C136.609,269.217 123.427,274.78 122.78,266.477C122.413,261.774 118.688,264.278 104.619,259.189C90.094,253.935 95.527,243.126 95.017,241.699C94.492,240.229 87.124,239.188 87.842,231.544C88.738,222.014 102.36,227.916 108.756,205.584C111.647,195.493 112.892,190.298 125.373,187.044C131.423,185.467 135.265,184.569 130.828,180.161C114.453,163.897 133.249,138.977 152.274,149.866C158.235,153.277 167.742,167.323 154.4,180.395C150.273,184.439 156.121,186.004 156.596,186.131C171.983,190.247 172.633,191.549 176.879,205.384C184.263,229.44 198.444,221.522 198.189,232.492C198.1,236.32 194.946,239.043 194.468,239.456Z" style="fill:rgb(89,138,101);"/>
                </g>
                <g transform="matrix(4.166667,0,0,4.166667,-278.011136,2163.254036)">
                    <path d="M177.592,218.44C182.91,225.189 183.118,225.069 190.657,229.184C197.939,233.159 190.19,240.538 177.744,233.091C176.471,232.329 168.712,227.687 166.173,218.603C165.143,214.915 168.238,209.81 165.316,208.986C162.127,208.087 161.981,211.598 159.682,223.536C157.555,234.585 158.192,235.057 158.773,239.459C159.259,243.145 155.349,243.121 146.368,248.27C141.56,251.027 141.229,249.371 136.371,246.759C130.52,243.613 127.031,242.654 127.104,240.486C127.285,235.12 128.921,234.935 124.344,214.533C123.863,212.388 124.069,209.341 121.475,208.858C117.408,208.101 120.356,215.876 119.678,218.543C115.498,234.968 92.746,240.829 92.607,232.498C92.52,227.24 102.567,230.861 110.827,213.644C115.988,202.887 112.566,194.649 127.434,191.247C132.05,190.192 137.903,189.646 137.227,181.522C136.876,177.298 128.371,174.23 129.447,164.495C131.427,146.593 157.799,149.128 156.12,167.458C155.369,175.648 148.691,177.441 148.313,181.484C147.098,194.475 162.718,187.867 169.207,197.691C171.495,201.156 172.032,210.009 177.592,218.44Z" style="fill:rgb(252,252,252);"/>
                </g>
                <g transform="matrix(4.166667,0,0,4.166667,-278.011136,2163.254036)">
                    <path d="M107.452,239.938C115.452,241.342 119.957,242.966 154.251,261.934C154.502,262.072 159.818,264.753 157.367,266.231C156.218,266.924 143.007,262.992 119.538,258.305C108.432,256.087 96.394,252.971 99.487,244.495C101.053,240.204 106.719,239.969 107.452,239.938Z" style="fill:rgb(252,252,252);"/>
                </g>
                <g transform="matrix(4.166667,0,0,4.166667,-278.011136,2163.254036)">
                    <path d="M171.606,256.915C159.625,260.008 159.31,259.441 155.646,257.244C150.814,254.345 146.515,253.384 150.527,251.545C156.274,248.911 183.537,231.452 186.585,245.482C188.317,253.453 176.14,255.758 171.606,256.915Z" style="fill:rgb(252,252,252);"/>
                </g>
                <g transform="matrix(4.166667,0,0,4.166667,-278.011136,2163.254036)">
                    <path d="M153.124,211.428C151.218,216.402 150.155,215.634 145.732,219.738C143.245,222.046 142.543,222.267 140.13,219.857C140.042,219.768 128.51,212.007 133.943,205.884C137.561,201.806 141.782,206.465 144.344,205.174C147.472,203.598 153.555,202.896 153.124,211.428Z" style="fill:rgb(89,138,101);"/>
                </g>
                <g transform="matrix(4.166667,0,0,4.166667,-278.011136,2163.254036)">
                    <path d="M178.903,166.442C178.787,165.687 177.991,160.504 173.462,158.597C172.716,158.283 163.103,156.459 171.467,154.345C180.427,152.079 177.697,143.071 180.521,142.979C184.418,142.853 178.851,152.115 190.533,154.33C193.486,154.89 193.52,157.135 190.54,157.71C180.658,159.614 183.114,167.027 181.396,168.373C179.7,169.704 179.604,168.449 178.903,166.442Z" style="fill:rgb(89,138,101);"/>
                </g>
                <g transform="matrix(4.166667,0,0,4.166667,-278.011136,2163.254036)">
                    <path d="M99.866,179.442C97.775,169.333 90.425,173.095 89.511,170.495C88.663,168.084 93.357,167.725 93.551,167.671C101.345,165.506 98.783,154.77 102.343,156.748C102.948,157.085 103.449,160.19 103.499,160.5C104.993,169.754 115.06,167.113 113.492,170.496C111.985,173.747 105.507,168.432 103.233,180.442C103.181,180.719 101.345,185.335 99.866,179.442Z" style="fill:rgb(89,138,101);"/>
                </g>
                <g transform="matrix(4.166667,0,0,4.166667,-278.011136,2163.254036)">
                    <path d="M144.595,208.595C145.987,207.592 145.779,207.121 147.486,207.07C148.623,207.037 149.256,207.539 149.38,207.637C153.446,210.862 144.535,217.084 144.322,217.261C142.783,218.546 142.087,217.819 138.84,215.102C131.92,209.311 136.635,206.107 139.607,207.281C142.058,208.248 142.026,210.655 144.595,208.595Z" style="fill:rgb(237,197,196);"/>
                </g>
                <g transform="matrix(4.166667,0,0,4.166667,-278.011136,2163.254036)">
                    <path d="M122.914,234.495C122.881,235.184 123.059,238.412 121.666,238.892C121.092,239.09 120.697,239.226 114.423,236.612C111.977,235.593 114.367,235.008 117.657,231.655C120.756,228.498 120.109,227.889 120.622,227.641C120.875,227.519 121.182,227.698 121.463,227.704C122.718,227.73 122.303,228.289 122.462,229.509C122.789,232.018 122.782,231.981 122.914,234.495Z" style="fill:rgb(249,249,247);"/>
                </g>
                <g transform="matrix(4.166667,0,0,4.166667,-278.011136,2163.254036)">
                    <path d="M163.04,234.505C163.055,233.952 163.222,228.015 163.666,227.609C164.68,226.681 165.593,228.176 165.682,228.322C168.371,232.726 172.203,234.491 172.278,235.531C172.321,236.123 172.359,236.643 165.527,238.597C162.753,239.39 163.093,235.394 163.04,234.505Z" style="fill:rgb(251,251,249);"/>
                </g>
                <g transform="matrix(4.166667,0,0,4.166667,-278.011136,2163.254036)">
                    <path d="M178.333,158.651C177.486,157.967 177.524,157.968 176.654,157.294C174.168,155.366 177.147,155.361 179.23,152.278C180.925,149.768 181.247,152.279 184.283,154.765C186.691,156.736 183.919,156.776 181.764,159.73C180.333,161.693 179.746,160.591 178.333,158.651Z" style="fill:rgb(112,153,166);"/>
                </g>
                <g transform="matrix(4.166667,0,0,4.166667,-278.011136,2163.254036)">
                    <path d="M103.915,171.927C102.319,174.14 101.664,175.332 99.998,173.122C99.545,172.521 99.747,172.319 97.333,170.655C94.58,168.757 98.335,169.024 100.118,166.201C100.817,165.094 100.583,164.737 101.515,164.713C102.624,164.685 103.08,167.288 105.367,168.648C107.513,169.923 105.941,170.491 103.915,171.927Z" style="fill:rgb(112,153,166);"/>
                </g>
                <g transform="matrix(4.166667,0,0,4.166667,-278.011136,2163.254036)">
                    <path d="M187.587,181.514C187.416,181.809 185.58,184.97 183.455,182.535C182.751,181.728 183.05,179.669 184.333,179.154C186.71,178.2 186.97,179.032 187.587,181.514Z" style="fill:rgb(89,138,101);"/>
                </g>
                <g transform="matrix(4.166667,0,0,4.166667,-278.011136,2163.254036)">
                    <path d="M192.174,172.556C192.693,170.868 192.628,170.844 192.735,170.734C194.875,168.529 197.808,172.766 195.237,174.033C193.44,174.919 193.392,174.159 192.174,172.556Z" style="fill:rgb(89,138,101);"/>
                </g>
                <g transform="matrix(4.166667,0,0,4.166667,-278.011136,2163.254036)">
                    <path d="M91.515,190.67C89.78,190.083 89.119,190.32 89.252,188.476C89.482,185.295 94.921,187.26 92.94,189.789C92.28,190.631 91.598,190.618 91.515,190.67Z" style="fill:rgb(89,138,101);"/>
                </g>
                <g transform="matrix(4.166667,0,0,4.166667,-278.011136,2163.254036)">
                    <path d="M129.463,264.672C129.606,264.738 130.123,264.501 130.836,265.304C132.475,267.153 127.017,267.617 127.246,265.424C127.303,264.872 129.277,264.689 129.463,264.672Z" style="fill:rgb(199,199,199);"/>
                </g>
            </g>
        </g>
    </g>
</svg>
