<?xml version="1.0" encoding="UTF-8" standalone="no"?>
<!DOCTYPE svg PUBLIC "-//W3C//DTD SVG 1.1//EN" "http://www.w3.org/Graphics/SVG/1.1/DTD/svg11.dtd">
<svg width="100%" height="100%" viewBox="0 0 104 101" version="1.1" xmlns="http://www.w3.org/2000/svg" xmlns:xlink="http://www.w3.org/1999/xlink" xml:space="preserve" xmlns:serif="http://www.serif.com/" style="fill-rule:evenodd;clip-rule:evenodd;stroke-linejoin:round;stroke-miterlimit:2;">
    <g transform="matrix(1,0,0,1,-805.614018,-735.030448)">
        <g transform="matrix(0.204388,0,0,0.204388,678.449477,419.212931)">
            <g transform="matrix(4.166667,0,0,4.166667,-1936.882818,849.764904)">
                <path d="M709.416,270.525C709.533,273.594 709.703,274.507 700.715,278.95C688.892,284.795 650.341,293.668 625.119,260.799C602.072,230.764 614.149,169.553 673.5,166.94C689.388,166.24 717.077,175.114 728.165,198.647C729.274,201 736.243,215.791 735.093,230.422C734.833,233.731 729.039,235.785 728.989,228.483C728.971,225.745 728.847,207.488 719.237,195.681C717.204,193.183 716.433,192.833 714.232,195.213C711.234,198.453 673.745,235.913 672.29,237.188C662.401,245.848 647.753,261.054 641.785,265.903C639.41,267.833 641.352,268.568 649.643,273.27C651.901,274.55 667.623,281.239 687.407,277.047C702.328,273.885 706.258,266.059 709.416,270.525Z" style="fill:rgb(89,138,101);"/>
            </g>
            <g transform="matrix(4.166667,0,0,4.166667,-1936.882818,849.764904)">
                <path d="M628.506,197.504C640.786,180.783 650.74,175.753 670.498,173.471C679.349,172.449 700.213,175.782 711.228,186.75C712.647,188.163 709.745,191.236 689.604,211.618C678.667,222.685 678.545,222.427 667.478,233.482C652.717,248.227 652.189,247.624 650.927,248.923C649.864,250.018 645.045,254.98 637.246,262.223C634.431,264.838 625.683,253.83 621.45,238.51C618.646,228.36 619.742,209.885 628.506,197.504Z" style="fill:rgb(128,109,110);"/>
            </g>
            <g transform="matrix(4.166667,0,0,4.166667,-1936.882818,849.764904)">
                <path d="M644.606,188.603C646.448,187.165 646.209,186.793 648.449,186.298C658.83,184.005 658.342,198.058 658.538,198.474C661.613,204.991 665.793,201.481 668.58,200.853C677.926,198.748 669.921,194.016 668.984,191.391C665.475,181.563 684.558,177.683 682.839,190.549C682.288,194.676 674.417,198.445 679.453,200.626C690.411,205.371 691.726,194.844 692.487,193.492C696.427,186.493 704.225,191.14 699.202,195.02C696.496,197.11 697.48,197.738 695.765,200.648C688.494,212.986 678.84,203.291 671.541,205.632C646.662,213.615 656.497,237.085 656.416,237.489C655.087,244.178 650.073,237.039 648.46,237.331C644.133,238.115 643.854,238.228 642.086,242.307C638.578,250.4 624.908,243.779 628.207,236.354C632.952,225.673 640.485,234.781 643.588,233.77C650.534,231.509 648.712,228.414 648.754,225.52C648.785,223.401 649.826,222.186 648.639,220.348C646.081,216.389 638.833,224.515 633.593,217.442C627.68,209.46 643.316,199.201 647.279,212.553C647.66,213.835 650.281,215.876 651.854,213.756C655.94,208.251 658.615,207.181 653.618,202.388C652.08,200.913 637.291,200.54 644.606,188.603Z" style="fill:rgb(89,138,101);"/>
            </g>
            <g transform="matrix(4.166667,0,0,4.166667,-1936.882818,849.764904)">
                <path d="M712.631,241.586C707.015,247.03 703.018,237.595 699.874,241.766C697.911,244.372 698.043,244.392 695.601,246.61C692.541,249.388 697.205,251.261 698.452,255.511C698.799,256.695 697.737,258.46 701.391,259.867C708.659,262.664 698.866,267.841 694.944,262.107C693.089,259.394 692.407,247.73 682.625,253.698C678.218,256.386 685.422,261.322 684.919,264.537C682.703,278.721 665.75,268.677 671.917,260.785C672.482,260.062 677.05,257.888 675.623,254.437C675.088,253.141 671.438,252.758 669.867,254.805C669.311,255.529 665.453,262.933 660.508,263.108C655.446,263.287 655.041,254.876 659.359,256.788C665.817,259.648 664.561,246.294 669.522,247.142C674.755,248.037 678.944,251.489 690.482,243.471C696.092,239.573 700.45,228.387 697.76,221.344C693.735,210.807 701.958,217.5 703.466,217.69C708.019,218.266 709.523,208.215 717.541,212.43C725.081,216.394 721.253,231.647 708.339,223.743C704.212,221.217 704.112,227.045 704.104,227.498C704.028,231.952 701.9,234.497 704.565,236.393C705.857,237.312 715.319,232.822 712.631,241.586Z" style="fill:rgb(89,138,101);"/>
            </g>
            <g transform="matrix(4.166667,0,0,4.166667,-1936.882818,849.764904)">
                <path d="M688.563,238.623C679.04,241.833 680.698,228.859 687.621,231.191C694.104,233.374 688.998,238.211 688.563,238.623Z" style="fill:rgb(89,138,101);"/>
            </g>
            <g transform="matrix(4.166667,0,0,4.166667,-1936.882818,849.764904)">
                <path d="M670.505,215.5C670.726,214.967 673.127,209.176 677.212,212.833C682.664,217.714 671.57,225 670.505,215.5Z" style="fill:rgb(89,138,101);"/>
            </g>
            <g transform="matrix(4.166667,0,0,4.166667,-1936.882818,849.764904)">
                <path d="M658.834,223.604C659.033,223.099 661.126,217.796 665.343,221.667C670.514,226.413 658.881,232.552 658.834,223.604Z" style="fill:rgb(89,138,101);"/>
            </g>
            <g transform="matrix(4.166667,0,0,4.166667,-1936.882818,849.764904)">
                <path d="M650.529,190.189C657.623,193.027 650.311,198.944 647.844,195.266C645.315,191.495 650.084,190.301 650.529,190.189Z" style="fill:white;"/>
            </g>
            <g transform="matrix(4.166667,0,0,4.166667,-1936.882818,849.764904)">
                <path d="M632.231,238.503C632.374,238.076 634.042,233.116 637.495,236.506C640.268,239.228 634.618,244.76 632.231,238.503Z" style="fill:white;"/>
            </g>
            <g transform="matrix(4.166667,0,0,4.166667,-1936.882818,849.764904)">
                <path d="M716.79,218.448C716.711,218.848 715.78,223.541 712.595,221.339C708.764,218.689 714.033,212.585 716.79,218.448Z" style="fill:white;"/>
            </g>
            <g transform="matrix(4.166667,0,0,4.166667,-1936.882818,849.764904)">
                <path d="M639.506,215.855C632.912,213.664 639.516,207.935 642.225,211.679C644.097,214.266 639.883,215.725 639.506,215.855Z" style="fill:white;"/>
            </g>
            <g transform="matrix(4.166667,0,0,4.166667,-1936.882818,849.764904)">
                <path d="M673.265,189.576C674.207,182.002 680.43,187.965 678.309,190.354C676.151,192.786 673.538,189.88 673.265,189.576Z" style="fill:white;"/>
            </g>
            <g transform="matrix(4.166667,0,0,4.166667,-1936.882818,849.764904)">
                <path d="M678.58,262.169C683.922,264.923 676.936,269.71 675.596,265.467C674.735,262.741 675.738,262.621 678.58,262.169Z" style="fill:white;"/>
            </g>
        </g>
    </g>
</svg>
