<?xml version="1.0" encoding="UTF-8" standalone="no"?>
<!DOCTYPE svg PUBLIC "-//W3C//DTD SVG 1.1//EN" "http://www.w3.org/Graphics/SVG/1.1/DTD/svg11.dtd">
<svg width="100%" height="100%" viewBox="0 0 116 101" version="1.1" xmlns="http://www.w3.org/2000/svg" xmlns:xlink="http://www.w3.org/1999/xlink" xml:space="preserve" xmlns:serif="http://www.serif.com/" style="fill-rule:evenodd;clip-rule:evenodd;stroke-linejoin:round;stroke-miterlimit:2;">
    <g transform="matrix(1,0,0,1,-317.397887,-727.867293)">
        <g transform="matrix(0.827425,0,0,0.827425,-468.606097,-569.327773)">
            <g transform="matrix(1.033898,0,0,1.033898,712.213676,1400.131722)">
                <path d="M301.437,166.646C314.701,173.48 328.693,176.526 322.305,179.094C316.262,181.523 299.729,169.69 295.671,171.818C271.974,184.241 259.439,178.96 259.257,183.47C258.684,197.689 262.637,209.109 252.51,208.38C252.092,208.35 246.162,207.924 249.26,204.278C250.314,203.038 253.328,203.538 253.494,201.5C254.383,190.585 250.771,177.803 257.559,176.773C265.029,175.64 268.606,176.338 286.378,170.224C294.354,167.48 294.079,163.544 301.437,166.646Z" style="fill:rgb(89,138,101);"/>
            </g>
            <g transform="matrix(1.033898,0,0,1.033898,712.213676,1400.131722)">
                <path d="M325.456,260.512C324.488,269.097 300.044,280.312 296.577,279.228C283.851,275.247 265.25,260.048 260.722,248.417C260.184,247.034 255.993,239.329 261.484,239.661C264.645,239.852 266.244,254.503 283.76,266.114C297.744,275.385 299.019,273.78 306.302,270.067C320.891,262.628 321.331,255.898 325.456,260.512Z" style="fill:rgb(89,138,101);"/>
            </g>
            <g transform="matrix(1.033898,0,0,1.033898,712.213676,1400.131722)">
                <path d="M322.455,249.467C317.841,256.276 303.953,268.706 296.455,266.602C281.464,262.395 264.366,240.23 272.485,239.417C276.577,239.007 275.919,251.74 296.525,261.448C298.601,262.426 312.057,259.06 321.888,240.667C322.136,240.203 325.992,232.989 327.624,237.46C328.843,240.801 323.076,248.625 322.455,249.467Z" style="fill:rgb(89,138,101);"/>
            </g>
            <g transform="matrix(1.033898,0,0,1.033898,712.213676,1400.131722)">
                <path d="M297.528,176.793C299.479,177.216 299.478,177.179 299.635,177.25C309.57,181.761 309.744,181.09 316.573,183.284C324.63,185.873 318.933,188.389 318.495,188.413C309.972,188.879 300.041,180.429 294.787,182.981C293.233,183.736 284.67,187.895 274.415,190.143C267.953,191.559 269.989,193.89 269.936,200.53C269.858,210.209 266.052,207.84 265.58,207.393C263.874,205.776 264.619,189.18 264.857,188.683C265.581,187.175 265.924,187.411 284.641,181.919C291.337,179.954 290.741,178.489 297.528,176.793Z" style="fill:rgb(89,138,101);"/>
            </g>
            <g transform="matrix(1.033898,0,0,1.033898,712.213676,1400.131722)">
                <path d="M316.237,162.847C331.676,176.029 342.062,172.091 342.428,178.503C343.946,205.123 341.673,205.941 339.492,205.734C337.713,205.565 336.436,205.053 336.931,183.549C337.072,177.453 333.806,179.64 325.563,175.322C324.323,174.673 311.982,168.208 311.817,164.485C311.642,160.55 315.9,162.679 316.237,162.847Z" style="fill:rgb(89,138,101);"/>
            </g>
            <g transform="matrix(1.033898,0,0,1.033898,712.213676,1400.131722)">
                <path d="M357.251,195.47C351.429,220.433 308.645,227.532 312.842,218.695C314.335,215.552 335.018,220.133 349.155,201.201C349.399,200.874 354.978,188.235 357.14,193.667C357.193,193.801 357.148,193.8 357.251,195.47Z" style="fill:rgb(128,109,110);"/>
            </g>
            <g transform="matrix(1.033898,0,0,1.033898,712.213676,1400.131722)">
                <path d="M365.412,207.506C361.653,228.8 316.421,238.466 323.133,229.234C324.961,226.72 348.986,227.761 360.209,208.338C360.42,207.973 363.466,202.702 365.412,207.506Z" style="fill:rgb(128,109,110);"/>
            </g>
            <g transform="matrix(1.033898,0,0,1.033898,712.213676,1400.131722)">
                <path d="M280.496,228.368C282.975,229.638 285.246,229.288 283.365,231.392C282.498,232.362 282.715,234.482 280.071,233.5C277.775,232.585 245.97,233.285 239.412,232.924C236.89,232.785 236.542,229.297 238.501,228.502C240.116,227.847 277.858,228.166 280.496,228.368Z" style="fill:rgb(128,109,110);"/>
            </g>
            <g transform="matrix(1.033898,0,0,1.033898,712.213676,1400.131722)">
                <path d="M229.932,219.506C231.85,216.25 233.144,217.371 243.496,217.374C255.255,217.376 260.612,217.992 261.265,215.459C262.722,209.804 266.668,212.64 266.637,215.504C266.54,224.211 262.856,222.373 251.501,222.46C232.096,222.609 231.139,222.726 229.932,219.506Z" style="fill:rgb(128,109,110);"/>
            </g>
            <g transform="matrix(1.033898,0,0,1.033898,712.213676,1400.131722)">
                <path d="M326.922,198.506C326.917,196.819 326.446,188.147 327.792,186.724C328.616,185.854 330.614,185.836 331.375,186.616C332.487,187.754 332.562,187.961 332.312,206.489C332.308,206.777 332.283,208.634 330.6,209.647C325.376,212.79 326.909,200.753 326.922,198.506Z" style="fill:rgb(89,138,101);"/>
            </g>
            <g transform="matrix(1.033898,0,0,1.033898,712.213676,1400.131722)">
                <path d="M280.496,228.368C280.79,228.235 281.168,228.477 281.462,228.344C283.576,227.391 277.637,225.102 276.443,222.531C273.836,216.916 280.731,218.922 287.476,225.529C288.283,226.319 293.126,231.063 281.312,238.228C278.74,239.787 275.316,237.182 280.071,233.5C282.715,234.482 282.498,232.362 283.365,231.392C285.246,229.288 282.975,229.638 280.496,228.368Z" style="fill:rgb(128,109,110);"/>
            </g>
            <g transform="matrix(1.033898,0,0,1.033898,712.213676,1400.131722)">
                <path d="M280.808,207.482C280.881,198.859 288.306,201.251 290.188,202.775C295.881,207.386 284.249,219.086 280.808,207.482Z" style="fill:rgb(89,138,101);"/>
            </g>
            <g transform="matrix(1.033898,0,0,1.033898,712.213676,1400.131722)">
                <path d="M314.089,199.36C308.439,209.21 299.067,196.614 307.643,192.786C308.533,192.389 315.107,190.992 314.089,199.36Z" style="fill:rgb(89,138,101);"/>
            </g>
            <g transform="matrix(1.033898,0,0,1.033898,712.213676,1400.131722)">
                <path d="M315.457,243.46C306.368,249.382 304.054,234.407 312.478,235.655C319.826,236.744 315.822,242.9 315.457,243.46Z" style="fill:rgb(89,138,101);"/>
            </g>
            <g transform="matrix(1.033898,0,0,1.033898,712.213676,1400.131722)">
                <path d="M236.396,200.63C231.917,195.728 237.704,192.578 238.486,192.451C245.024,191.392 246.619,204.443 236.396,200.63Z" style="fill:rgb(89,138,101);"/>
            </g>
            <g transform="matrix(1.033898,0,0,1.033898,712.213676,1400.131722)">
                <path d="M243.812,253.459C243.819,252.858 243.895,246.503 249.485,248.538C256.798,251.199 247.417,262.7 243.812,253.459Z" style="fill:rgb(89,138,101);"/>
            </g>
            <g transform="matrix(1.033898,0,0,1.033898,712.213676,1400.131722)">
                <path d="M304.094,218.463C300.931,225.315 296.051,218.45 299.469,215.46C302.749,212.591 303.995,218.033 304.094,218.463Z" style="fill:rgb(89,138,101);"/>
            </g>
            <g transform="matrix(1.033898,0,0,1.033898,712.213676,1400.131722)">
                <path d="M255.993,266.335C256.433,259.423 262.889,263.106 261.682,266.598C260.162,270.997 256.297,266.675 255.993,266.335Z" style="fill:rgb(89,138,101);"/>
            </g>
            <g transform="matrix(1.033898,0,0,1.033898,712.213676,1400.131722)">
                <path d="M294.489,239.89C301.343,243.072 293.833,247.892 291.999,244.302C290.605,241.573 294.117,240.051 294.489,239.89Z" style="fill:rgb(89,138,101);"/>
            </g>
            <g transform="matrix(1.033898,0,0,1.033898,712.213676,1400.131722)">
                <path d="M346.685,173.655C353.12,169.768 352.03,176.698 350.442,177.409C345.285,179.716 346.589,174.069 346.685,173.655Z" style="fill:rgb(89,138,101);"/>
            </g>
            <g transform="matrix(1.033898,0,0,1.033898,712.213676,1400.131722)">
                <path d="M339.135,238.428C336.037,244.022 332.6,237.563 335.595,235.683C338.064,234.133 339.048,238.081 339.135,238.428Z" style="fill:rgb(89,138,101);"/>
            </g>
        </g>
    </g>
</svg>
