<?xml version="1.0" encoding="UTF-8" standalone="no"?>
<!DOCTYPE svg PUBLIC "-//W3C//DTD SVG 1.1//EN" "http://www.w3.org/Graphics/SVG/1.1/DTD/svg11.dtd">
<svg width="100%" height="100%" viewBox="0 0 101 107" version="1.1" xmlns="http://www.w3.org/2000/svg" xmlns:xlink="http://www.w3.org/1999/xlink" xml:space="preserve" xmlns:serif="http://www.serif.com/" style="fill-rule:evenodd;clip-rule:evenodd;stroke-linejoin:round;stroke-miterlimit:2;">
    <g transform="matrix(1,0,0,1,-571.351839,-723.447535)">
        <g transform="matrix(0.237006,0,0,0.237006,470.673887,373.19944)">
            <g transform="matrix(4.166667,0,0,4.166667,-1311.836179,784.569018)">
                <path d="M473.503,265.108C459.834,265.109 446.165,265.11 432.495,265.11C427.108,265.111 416.466,266.08 416.798,262.458C417.183,258.254 425.96,259.488 429.495,259.43C432.245,259.386 431.207,252.967 431.328,240.502C431.437,229.288 435.322,230.274 446.498,230.429C456.467,230.568 451.362,238.815 453.211,240.872C456.192,244.187 452.695,234.365 456.575,231.606C459.424,229.58 491.42,230.9 494.471,230.322C496.795,229.883 496.372,213.593 494.587,213.175C493.581,212.94 467.824,213.088 465.497,213.101C462.954,213.116 463.153,213.927 463.168,216.506C463.192,220.731 464.641,229.366 459.429,228.718C457.735,228.508 457.124,227.921 457.203,207.494C457.233,199.469 458.641,197.365 472.53,197.88C480.929,198.191 478.112,205.696 478.91,207.156C481.045,211.061 479.685,205.893 480.534,201.519C480.739,200.463 481.385,197.137 493.526,198.054C503.862,198.834 500.758,204.931 501.29,216.517C501.434,219.662 510.388,218.598 510.494,218.6C519.967,218.746 518.622,226.957 518.428,236.495C518.339,240.866 514.088,240.808 512.782,238.315C511.628,236.11 511.329,236.219 508.485,236.211C477.071,236.127 476.272,235.69 475.768,237.55C475.701,237.797 475.597,257.762 475.821,258.419C476.694,260.974 505.195,257.579 507.293,260.62C511.145,266.206 501.106,265.086 473.503,265.108Z" style="fill:rgb(89,138,101);"/>
            </g>
            <g transform="matrix(4.166667,0,0,4.166667,-1311.836179,784.569018)">
                <path d="M439.499,259.434C438.77,259.333 437.181,259.881 437.111,257.497C436.933,251.382 436.687,246.219 438.43,246.112C439.686,246.035 453.084,246.268 464.494,245.934C469.534,245.787 469.779,246.967 469.869,247.403C469.962,247.85 470.039,257.732 469.695,258.619C469.218,259.85 467.298,259.143 439.499,259.434Z" style="fill:rgb(128,109,110);"/>
            </g>
            <g transform="matrix(4.166667,0,0,4.166667,-1311.836179,784.569018)">
                <path d="M508.289,269.899C513.953,274.753 499.326,274.199 498.47,274.167C495.914,274.07 495.939,274.53 466.499,274.06C450.465,273.804 450.521,274.588 434.517,274.197C431.383,274.12 424.38,274.513 423.889,272.445C422.547,266.789 427.295,270.165 496.501,269.555C502.416,269.503 502.364,269.428 508.289,269.899Z" style="fill:rgb(128,109,110);"/>
            </g>
            <g transform="matrix(4.166667,0,0,4.166667,-1311.836179,784.569018)">
                <path d="M511.282,183.237C506.325,184.998 500.305,183.131 500.178,185.441C499.704,194.071 500.683,194.868 498.576,195.658C493.249,197.656 495.412,193.531 494.369,185.514C493.856,181.573 480.052,187.046 481.415,180.475C482.412,175.665 493.598,179.404 494.328,176.471C494.79,174.615 493.051,165.973 497.511,166.39C499.966,166.62 500.069,169.213 500.082,169.538C500.359,176.499 499.374,177.307 501.399,177.824C502.403,178.081 514.351,176.22 512.107,182.277C512.071,182.372 512.107,182.277 511.282,183.237Z" style="fill:rgb(89,138,101);"/>
            </g>
            <g transform="matrix(4.166667,0,0,4.166667,-1311.836179,784.569018)">
                <path d="M501.192,227.522C501.26,225.597 501.226,225.605 501.266,225.443C501.752,223.464 511.76,223.381 512.485,225.506C514.732,232.094 510.432,230.539 503.5,230.412C501.276,230.372 501.436,229.736 501.192,227.522Z" style="fill:rgb(128,109,110);"/>
            </g>
            <g transform="matrix(4.166667,0,0,4.166667,-1311.836179,784.569018)">
                <path d="M439.499,240.693C437.005,240.298 436.544,239.883 437.258,237.433C437.776,235.658 442.846,236.112 445.519,236.172C449.343,236.256 447.74,240.226 447.464,240.447C446.504,241.216 446.359,240.743 439.499,240.693Z" style="fill:rgb(128,109,110);"/>
            </g>
            <g transform="matrix(4.166667,0,0,4.166667,-1311.836179,784.569018)">
                <path d="M466.521,236.157C469.548,236.547 470.509,236.675 469.818,239.623C469.374,241.521 459.115,241.82 459.472,238.496C459.806,235.383 466.457,236.16 466.521,236.157Z" style="fill:rgb(128,109,110);"/>
            </g>
            <g transform="matrix(4.166667,0,0,4.166667,-1311.836179,784.569018)">
                <path d="M489.504,203.317C494.128,203.685 497.109,202.196 495.707,206.574C495.249,208.006 483.202,209.22 485.378,204.431C485.725,203.667 489.164,203.349 489.504,203.317Z" style="fill:rgb(128,109,110);"/>
            </g>
            <g transform="matrix(4.166667,0,0,4.166667,-1311.836179,784.569018)">
                <path d="M463.161,205.478C463.695,204.115 463.326,203.788 464.48,203.441C465.681,203.08 470.956,203.312 471.518,203.337C473.564,203.427 474.695,207.441 471.501,207.562C466.486,207.751 464.773,210.197 463.161,205.478Z" style="fill:rgb(128,109,110);"/>
            </g>
        </g>
    </g>
</svg>
