<?xml version="1.0" encoding="UTF-8" standalone="no"?>
<!DOCTYPE svg PUBLIC "-//W3C//DTD SVG 1.1//EN" "http://www.w3.org/Graphics/SVG/1.1/DTD/svg11.dtd">
<svg width="100%" height="100%" viewBox="0 0 101 101" version="1.1" xmlns="http://www.w3.org/2000/svg" xmlns:xlink="http://www.w3.org/1999/xlink" xml:space="preserve" xmlns:serif="http://www.serif.com/" style="fill-rule:evenodd;clip-rule:evenodd;stroke-linejoin:round;stroke-miterlimit:2;">
    <g transform="matrix(1,0,0,1,-96.597395,-735.079966)">
        <g transform="matrix(0.76246,0,0,0.76246,-444.589367,-602.22661)">
            <g transform="matrix(1.284321,0,0,1.284321,625.355679,1538.550384)">
                <path d="M70.421,267.592C60.559,257.425 68.373,225.056 74.811,214.689C96.683,179.473 110.559,203.373 106.492,207.493C103.308,210.717 102.871,207.843 101.334,203.579C101.292,203.463 98.987,200.87 95.418,202.257C75.452,210.017 68.042,248.569 73.435,261.536C75.721,267.032 80.043,260.271 88.572,258.967C106.653,256.203 103.702,243.362 103.815,231.49C103.872,225.438 106.671,226.856 116.27,217.251C119.709,213.81 129.929,224.477 124.647,226.775C121.753,228.034 119.538,224.154 119.068,223.85C118.381,223.406 117.665,222.943 110.64,229.661C107.448,232.713 112.793,250.235 104.22,258.17C98.176,263.764 89.575,264.547 89.512,264.562C79.336,266.973 79.034,273.553 70.421,267.592Z" style="fill:rgb(89,138,101);"/>
            </g>
            <g transform="matrix(1.284321,0,0,1.284321,625.355679,1538.550384)">
                <path d="M139.473,258.437C125.357,263.059 115.685,248.636 130.965,225.783C143.079,207.666 148.194,209.307 149.099,187.536C149.335,181.875 145.32,192.661 140.802,189.2C139.862,188.48 137.404,186.597 148.6,176.622C152.914,172.778 154.378,177.959 161.179,182.957C166.631,186.963 162.628,191.522 159.734,189.138C158.754,188.332 153.552,182.741 154.477,187.505C158.268,207.022 135.005,224.761 136.294,229.555C137.99,235.868 152.202,250.187 139.473,258.437Z" style="fill:rgb(89,138,101);"/>
            </g>
            <g transform="matrix(1.284321,0,0,1.284321,625.355679,1538.550384)">
                <path d="M110.267,169.412C110.517,169.159 112.927,166.716 114.596,168.405C115.82,169.644 115.848,174.915 115.851,175.491C116.021,208.094 114.39,207.956 113.565,210.522C109.846,222.086 93.057,225.064 91.169,240.462C91.049,241.444 93.923,257.034 88.604,253.335C87.312,252.437 86.599,245.218 86.528,244.495C86.285,242.031 81.556,244.261 79.5,243.5C79.015,243.321 74.502,239.528 83.485,238.416C86.718,238.016 90.783,228.758 89.55,228.41C80.421,225.828 91.744,223.702 93.604,222.592C96.24,221.019 90.539,221.404 89.336,217.571C86.887,209.765 97.357,220.952 103.362,215.332C113.943,205.43 108.698,197.688 110.267,169.412Z" style="fill:rgb(89,138,101);"/>
            </g>
            <g transform="matrix(1.284321,0,0,1.284321,625.355679,1538.550384)">
                <path d="M125.52,168.48C129.192,176.713 123.062,205 129.708,212.341C135.965,219.252 130.144,219.323 129.624,219.158C125.99,218.004 120.868,210.34 120.797,202.476C120.521,172.008 120.494,171.95 121.31,169.436C122.134,166.897 122.952,167.679 125.52,168.48Z" style="fill:rgb(89,138,101);"/>
            </g>
            <g transform="matrix(1.284321,0,0,1.284321,625.355679,1538.550384)">
                <path d="M139.781,251.602C133.219,260.778 122.725,249.767 131.401,234.413C132.682,232.145 132.937,234.522 136,238.927C141.092,246.247 140.033,250.574 139.781,251.602Z" style="fill:rgb(128,109,110);"/>
            </g>
            <g transform="matrix(1.284321,0,0,1.284321,625.355679,1538.550384)">
                <path d="M168.111,231.37C162.784,236.916 164.06,229.498 157.178,217.705C156.841,217.128 151.151,207.377 157.557,209.359C158.151,209.542 166.961,219.785 168.111,231.37Z" style="fill:rgb(89,138,101);"/>
            </g>
            <g transform="matrix(1.284321,0,0,1.284321,625.355679,1538.550384)">
                <path d="M149.065,236.306C148.642,236.547 148.173,238.591 144.849,235.169C138.233,228.359 144.243,220.303 149.378,224.666C152.921,227.676 147.267,228.383 147.387,230.515C147.399,230.726 147.431,230.716 148.28,232.592C149.435,235.141 149.021,235.188 149.065,236.306Z" style="fill:rgb(89,138,101);"/>
            </g>
            <g transform="matrix(1.284321,0,0,1.284321,625.355679,1538.550384)">
                <path d="M137.458,200.498C135.696,209.024 129.337,209.626 130.395,204.468C131.513,199.013 136.531,194.737 137.458,200.498Z" style="fill:rgb(89,138,101);"/>
            </g>
            <g transform="matrix(1.284321,0,0,1.284321,625.355679,1538.550384)">
                <path d="M152.536,267.532C144.011,270.405 142.34,263.253 146.492,262.899C146.882,262.866 150.725,263.326 151.421,263.683C154.232,265.122 152.544,267.494 152.536,267.532Z" style="fill:rgb(89,138,101);"/>
            </g>
            <g transform="matrix(1.284321,0,0,1.284321,625.355679,1538.550384)">
                <path d="M166.355,200.551C166.372,200.969 166.583,206.101 162.61,204.19C158.491,202.208 162.597,195.267 166.355,200.551Z" style="fill:rgb(89,138,101);"/>
            </g>
        </g>
    </g>
</svg>
