<?xml version="1.0" encoding="UTF-8" standalone="no"?>
<!DOCTYPE svg PUBLIC "-//W3C//DTD SVG 1.1//EN" "http://www.w3.org/Graphics/SVG/1.1/DTD/svg11.dtd">
<svg width="100%" height="100%" viewBox="0 0 108 119" version="1.1" xmlns="http://www.w3.org/2000/svg" xmlns:xlink="http://www.w3.org/1999/xlink" xml:space="preserve" xmlns:serif="http://www.serif.com/" style="fill-rule:evenodd;clip-rule:evenodd;stroke-linejoin:round;stroke-miterlimit:2;">
    <g transform="matrix(1,0,0,1,-910.357198,-2017.005167)">
        <g transform="matrix(0.130568,0,0,0.130568,884.06632,1807.572857)">
            <g transform="matrix(6.25,0,0,6.25,-1836.365885,415.884031)">
                <path d="M393.908,330.538C396.003,322.034 396.139,322.079 400.322,314.405C401.72,311.839 397.535,312.129 394.656,310.256C381.187,301.489 388.579,283.784 389.033,282.361C392.88,270.313 399.275,279.538 405.432,281.745C407.82,282.6 407.857,277.39 415.545,270.551C426.845,260.498 450.761,254.712 451.487,254.783C456.812,255.303 457.61,267.935 457.271,274.482C456.412,291.1 443.641,302.077 439.596,304.642C421.058,316.396 414.641,306.384 410.619,311.589C399.426,326.079 402.125,332.952 398.499,334.498C394.564,336.177 393.964,331.02 393.908,330.538Z" style="fill:rgb(89,138,101);"/>
            </g>
            <g transform="matrix(6.25,0,0,6.25,-1836.365885,415.884031)">
                <path d="M366.069,254.453C364.752,259.266 360.224,269.922 369.549,271.156C372.675,271.57 373.068,270.689 374.533,272.475C378.964,277.877 357.231,277.21 358.33,264.503C358.512,262.39 360.629,257.385 359.658,257.29C357.405,257.069 358.079,258.359 352.017,274.316C348.996,282.269 333.726,324.133 331.471,325.458C328.678,327.098 324.747,325.675 326.449,320.483C328.372,314.615 334.733,300.058 343.307,277.426C352.858,252.213 355.115,249.748 356.875,247.826C371.034,232.363 394.003,242.207 388.061,265.383C384.79,278.141 377.681,294.246 372.715,315.545C369.078,331.141 367.008,331.628 365.615,331.956C363.076,332.553 360.387,330.524 361.418,326.479C364.066,316.08 381.924,265.298 382.313,257.496C382.689,249.961 375.482,245.051 368.431,247.272C366.2,247.975 366.27,248.054 363.569,248.644C361.989,248.989 362.233,250.222 363.426,250.597C366.563,251.586 365.873,252.715 366.069,254.453Z" style="fill:rgb(89,138,101);"/>
            </g>
            <g transform="matrix(6.25,0,0,6.25,-1836.365885,415.884031)">
                <path d="M392.116,236.472C392.028,237.044 390.894,244.455 387.293,241.854C385.075,240.252 386.807,236.719 384.166,229.631C381.286,221.903 381.128,221.781 380.431,221.711C378.082,221.477 375.484,229.681 370.545,227.413C364.774,224.764 370.09,211.483 360.581,201.38C358.097,198.74 359.537,203.891 354.229,212.326C345.501,226.196 347.768,227.123 346.704,231.547C345.151,238.002 340.128,231.71 339.782,231.277C339.362,230.751 337.02,226.324 336.021,230.304C332.297,245.136 351.194,254.501 345.199,258.047C340.44,260.862 325.069,243.115 329.844,227.602C330.835,224.383 333.081,216.753 337.481,218.543C338.946,219.139 341.142,222.923 342.2,221.279C342.837,220.289 342.427,220.077 349.233,208.35C355.933,196.802 349.344,189.678 355.534,190.119C359.227,190.382 371.74,199.421 373.1,213.547C373.446,217.136 373.325,217.161 373.608,217.397C375.634,219.088 378.819,207.459 383.341,210.753C384.518,211.611 384.388,211.763 390.49,227.504C392.165,231.825 391.81,231.886 392.116,236.472Z" style="fill:rgb(89,138,101);"/>
            </g>
            <g transform="matrix(6.25,0,0,6.25,-1836.365885,415.884031)">
                <path d="M427.834,202.609C432.238,192.067 436.96,206.91 439.415,212.541C441.138,216.496 453.751,229.946 444.127,241.179C431.435,255.993 407.328,239.219 419.884,218.73C423.783,212.367 424.368,212.659 427.834,202.609Z" style="fill:rgb(89,138,101);"/>
            </g>
            <g transform="matrix(6.25,0,0,6.25,-1836.365885,415.884031)">
                <path d="M431.559,286.561C434.224,283.999 439.646,278.941 439.233,277.576C438.707,275.837 436.843,275.551 420.75,290.767C413.529,297.595 411.926,301.857 410.956,297.386C408.533,286.214 418.275,276.933 419.631,275.641C427.334,268.303 447.136,262.343 448.504,262.441C450.567,262.59 451.402,268.877 450.852,274.538C448.221,301.637 416.42,308.279 417.167,302.43C417.272,301.607 423.854,294.083 431.559,286.561Z" style="fill:rgb(253,253,253);"/>
            </g>
            <g transform="matrix(6.25,0,0,6.25,-1836.365885,415.884031)">
                <path d="M418.14,252.578C420.002,271.886 389.668,266.621 400.847,247.706C403.345,243.479 405.682,235.569 410.068,240.874C414.659,246.428 415.718,245.773 418.14,252.578Z" style="fill:rgb(89,138,101);"/>
            </g>
            <g transform="matrix(6.25,0,0,6.25,-1836.365885,415.884031)">
                <path d="M430.887,210.884C431.879,210.878 432.143,210.54 432.504,211.496C433.63,214.474 433.067,214.734 437.957,222.189C448.974,238.986 430.655,244.936 424.761,236.334C419.087,228.054 426.926,219.795 430.887,210.884Z" style="fill:rgb(188,166,145);"/>
            </g>
            <g transform="matrix(6.25,0,0,6.25,-1836.365885,415.884031)">
                <path d="M403.488,305.965C388.07,304.525 393.883,287.178 394.452,285.48C395.253,283.09 396.897,284.26 401.196,286.985C405.555,289.749 404.192,291.539 404.274,294.506C404.473,301.701 410.621,305.351 403.488,305.965Z" style="fill:rgb(253,253,253);"/>
            </g>
            <g transform="matrix(6.25,0,0,6.25,-1836.365885,415.884031)">
                <path d="M407.458,259.811C397.98,256.719 406.33,247.199 407.513,246.904C409.448,246.421 419.034,258.467 407.458,259.811Z" style="fill:rgb(188,166,145);"/>
            </g>
        </g>
    </g>
</svg>
