<?xml version="1.0" encoding="UTF-8" standalone="no"?>
<!DOCTYPE svg PUBLIC "-//W3C//DTD SVG 1.1//EN" "http://www.w3.org/Graphics/SVG/1.1/DTD/svg11.dtd">
<svg width="100%" height="100%" viewBox="0 0 160 119" version="1.1" xmlns="http://www.w3.org/2000/svg" xmlns:xlink="http://www.w3.org/1999/xlink" xml:space="preserve" xmlns:serif="http://www.serif.com/" style="fill-rule:evenodd;clip-rule:evenodd;stroke-linejoin:round;stroke-miterlimit:2;">
    <g transform="matrix(1,0,0,1,-1160.929186,-2012.860167)">
        <g transform="matrix(0.148934,0,0,0.148934,1040.864262,1768.777676)">
            <g transform="matrix(6.25,0,0,6.25,-2552.841052,409.898887)">
                <path d="M647.51,294.069C624.674,294.499 613.731,305.268 584.698,317.955C543.991,335.743 531.82,306.594 539.704,290.596C549.111,271.505 566.265,269.544 563.22,264.665C562.697,263.826 559.452,258.627 561.344,252.45C566.77,234.728 597.622,238.747 593.231,259.447C590.363,272.965 575.37,271.317 573.551,271.117C569.774,270.701 569.28,270.421 558.144,279.05C537.009,295.429 544.722,308.266 547.662,311.345C572.463,337.328 631.022,263.989 668.105,294.939C673.827,299.715 669.36,305.341 664.815,301.151C658.634,295.454 656.782,294.865 647.51,294.069Z" style="fill:rgb(89,138,101);"/>
            </g>
            <g transform="matrix(6.25,0,0,6.25,-2552.841052,409.898887)">
                <path d="M618.578,255.89C642.3,253.421 640.268,281.945 620.541,284.76C602.517,287.332 592.875,263.452 618.578,255.89Z" style="fill:rgb(89,138,101);"/>
            </g>
            <g transform="matrix(6.25,0,0,6.25,-2552.841052,409.898887)">
                <path d="M649.479,253.858C637.536,251.667 643.321,241.446 644.77,239.719C651.092,232.188 659.768,235.669 661.5,235.498C663.046,235.345 667.277,229.126 670.712,221.594C679.383,202.581 675.195,199.695 679.473,198.418C692.619,194.494 669.205,252.052 649.479,253.858Z" style="fill:rgb(89,138,101);"/>
            </g>
            <g transform="matrix(6.25,0,0,6.25,-2552.841052,409.898887)">
                <path d="M653.791,221.73C653.602,221.952 645.917,236.574 605.273,254.017C603.523,254.768 599.54,256.988 597.378,255.635C596.572,255.131 595.636,251.692 599.58,249.645C623.234,237.366 648.7,230.785 656.88,199.583C657.97,195.426 664.744,194.769 662.723,203.551C661.779,207.651 658.724,215.385 653.791,221.73Z" style="fill:rgb(89,138,101);"/>
            </g>
            <g transform="matrix(6.25,0,0,6.25,-2552.841052,409.898887)">
                <path d="M569.481,305.947C553.021,304.289 555.616,287.896 566.68,282.924C586.631,273.959 594.519,304.33 569.481,305.947Z" style="fill:rgb(89,138,101);"/>
            </g>
            <g transform="matrix(6.25,0,0,6.25,-2552.841052,409.898887)">
                <path d="M708.126,242.411C704.958,255.933 704.998,264.359 697.135,256.882C683.597,244.01 674.771,238.882 685.536,236.69C703.83,232.965 710.726,228.823 709.002,238.422C708.762,239.762 708.367,241.071 708.126,242.411Z" style="fill:rgb(188,166,145);"/>
            </g>
            <g transform="matrix(6.25,0,0,6.25,-2552.841052,409.898887)">
                <path d="M643.509,282.129C641.317,281.781 640.75,282.421 639.882,280.377C638.7,277.595 644.085,277.011 644.545,276.962C663.998,274.853 664.007,275.465 683.471,276.892C690.008,277.371 685.259,268.28 689.559,266.764C693.505,265.373 689.105,273.56 696.652,276.027C705.96,279.069 691.099,284.437 684.485,283.69C664.051,281.379 664.044,281.963 643.509,282.129Z" style="fill:rgb(89,138,101);"/>
            </g>
            <g transform="matrix(6.25,0,0,6.25,-2552.841052,409.898887)">
                <path d="M611.51,231.511C598.614,242.07 586.395,226.615 598.612,217.66C609.348,209.791 622.368,220.627 611.51,231.511Z" style="fill:rgb(89,138,101);"/>
            </g>
            <g transform="matrix(6.25,0,0,6.25,-2552.841052,409.898887)">
                <path d="M588.06,255.526C586.318,274.576 557.969,262.856 568.826,250.784C573.061,246.075 585.834,243.22 588.06,255.526Z" style="fill:rgb(253,253,253);"/>
            </g>
            <g transform="matrix(6.25,0,0,6.25,-2552.841052,409.898887)">
                <path d="M617.387,262.198C628.861,258.682 631.748,267.144 629.229,272.378C623.726,283.814 606.082,278.872 608.585,270.519C610.397,264.472 616.076,262.82 617.387,262.198Z" style="fill:rgb(253,253,253);"/>
            </g>
            <g transform="matrix(6.25,0,0,6.25,-2552.841052,409.898887)">
                <path d="M685.664,255.736C683.273,257.255 670.331,265.48 653.54,270.635C645.909,272.977 644.673,269 647.291,267.169C648.269,266.484 668.482,259.909 681.34,252.228C688.653,247.859 688.172,253.281 687.283,254.331C687.172,254.461 687.163,254.435 685.664,255.736Z" style="fill:rgb(188,166,145);"/>
            </g>
            <g transform="matrix(6.25,0,0,6.25,-2552.841052,409.898887)">
                <path d="M584.115,225.387C577.75,240.598 560.381,228.727 569.655,218.64C574.364,213.516 585.681,214.55 584.115,225.387Z" style="fill:rgb(89,138,101);"/>
            </g>
            <g transform="matrix(6.25,0,0,6.25,-2552.841052,409.898887)">
                <path d="M579.803,292.504C577.095,305.583 558.107,301.137 564.352,291.393C566.111,288.649 577.642,282.008 579.803,292.504Z" style="fill:rgb(253,253,253);"/>
            </g>
            <g transform="matrix(6.25,0,0,6.25,-2552.841052,409.898887)">
                <path d="M701.963,243.604C701.411,246.423 700.842,253.014 698.416,250.624C691.235,243.549 686.38,241.608 691.318,241.023C694.496,240.646 703.446,236.602 702.715,240.516C702.521,241.558 702.157,242.562 701.963,243.604Z" style="fill:rgb(188,166,145);"/>
            </g>
            <g transform="matrix(6.25,0,0,6.25,-2552.841052,409.898887)">
                <path d="M602.467,229.853C594.747,227.656 600.287,221.63 604.52,220.583C612.132,218.701 613.34,228.672 602.467,229.853Z" style="fill:rgb(253,253,253);"/>
            </g>
            <g transform="matrix(6.25,0,0,6.25,-2552.841052,409.898887)">
                <path d="M654.502,240.117C656.479,240.288 659.374,240.278 656.574,243.558C649.181,252.221 647.492,247.28 647.399,246.514C647.283,245.553 648.024,243.406 649.773,241.814C651.15,240.561 654.104,240.169 654.502,240.117Z" style="fill:rgb(253,253,253);"/>
            </g>
            <g transform="matrix(6.25,0,0,6.25,-2552.841052,409.898887)">
                <path d="M576.393,227.18C568.127,228.351 573.31,218.058 578.598,221.392C579.341,221.86 579.512,223.488 579.18,224.399C578.477,226.332 578.185,226.135 576.393,227.18Z" style="fill:rgb(252,252,252);"/>
            </g>
            <g transform="matrix(6.25,0,0,6.25,-2552.841052,409.898887)">
                <path d="M601.877,290.405C601.22,293.035 600.818,293.88 598.385,292.669C595.861,291.412 599.103,287.204 601.447,289.546C601.674,289.772 601.651,290.178 601.877,290.405Z" style="fill:rgb(89,138,101);"/>
            </g>
        </g>
    </g>
</svg>
