<?xml version="1.0" encoding="UTF-8" standalone="no"?>
<!DOCTYPE svg PUBLIC "-//W3C//DTD SVG 1.1//EN" "http://www.w3.org/Graphics/SVG/1.1/DTD/svg11.dtd">
<svg width="100%" height="100%" viewBox="0 0 139 119" version="1.1" xmlns="http://www.w3.org/2000/svg" xmlns:xlink="http://www.w3.org/1999/xlink" xml:space="preserve" xmlns:serif="http://www.serif.com/" style="fill-rule:evenodd;clip-rule:evenodd;stroke-linejoin:round;stroke-miterlimit:2;">
    <g transform="matrix(1,0,0,1,-653.678906,-2019.351714)">
        <g transform="matrix(0.659975,0,0,0.659975,191.908292,569.15443)">
            <g transform="matrix(1.246265,0,0,1.246265,570.170551,1953.747194)">
                <path d="M266.065,280.49C265.283,275.778 263.632,273.295 253.465,274.209C247.355,274.759 249.392,277.367 249.075,283.483C248.408,296.35 243.217,296.562 241.85,293.369C241.479,292.504 244.08,275.768 242.966,272.294C242.14,269.718 233.67,274.363 210.503,274.208C176.547,273.981 172.549,267.292 173.211,272.517C175.232,288.458 171.132,294.76 180.074,304.874C195.889,322.761 219.244,314.282 222.245,317.726C225.293,321.223 216.458,323.276 208.484,322.71C168.591,319.878 168.108,293.201 167.527,287.497C167.188,284.157 166.981,263.987 167.218,262.459C169.066,250.545 217.496,251.683 233.539,254.303C251.106,257.171 248.851,261.555 249.298,265.531C249.696,269.07 258.338,265.174 264.327,267.884C280.383,275.149 269.244,295.821 262.647,292.23C258.115,289.764 264.608,289.031 266.065,280.49Z" style="fill:rgb(89,138,101);"/>
            </g>
            <g transform="matrix(1.246265,0,0,1.246265,570.170551,1953.747194)">
                <path d="M140.501,318.126C149.024,318.743 147.649,325.629 141.5,325.61C109.371,325.508 109.065,325.322 106.765,323.207C103.044,319.783 104.433,318.298 104.241,287.503C104.052,256.959 104.61,257.008 103.927,226.496C103.409,203.372 124.57,219.147 124.636,210.504C124.678,204.97 123.282,199.113 132.498,198.97C154.203,198.633 154.976,199.33 156.399,200.614C161.493,205.208 156.278,212.966 161.513,213.14C171.362,213.469 178.776,211.322 178.795,226.501C178.823,249.591 179.085,253.062 174.554,252.279C171.391,251.733 171.65,250.496 171.405,233.502C171.285,225.223 172.903,220.728 166.497,220.666C162.267,220.625 115.59,220.17 113.627,220.913C111.119,221.861 111.733,222.778 111.661,244.501C111.642,250.179 111.438,312.284 111.765,315.473C112.099,318.729 113.649,318.218 140.501,318.126Z" style="fill:rgb(89,138,101);"/>
            </g>
            <g transform="matrix(1.246265,0,0,1.246265,570.170551,1953.747194)">
                <path d="M181.087,288.327C181.376,285.503 181.104,285.329 181.758,284.991C182.229,284.749 184.271,284.897 184.489,284.913C191.376,285.411 229.573,284.971 233.493,284.926C233.947,284.921 236.903,284.887 236.885,289.466C236.817,305.971 217.1,314.684 199.546,310.313C178.383,305.043 180.8,293.64 181.087,288.327Z" style="fill:rgb(188,166,145);"/>
            </g>
            <g transform="matrix(1.246265,0,0,1.246265,570.170551,1953.747194)">
                <path d="M193.441,337.953C191.572,337.684 178.671,335.824 170.444,332.643C150.273,324.845 148.962,318.629 148.512,316.497C145.919,304.206 165.742,297.922 164.154,303.454C163.524,305.648 162.822,304.967 160.712,305.943C144.474,313.446 158.906,324.57 198.462,327.911C225.266,330.175 227.465,324.822 231.131,330.708C236.615,339.512 210.42,340.252 193.441,337.953Z" style="fill:rgb(89,138,101);"/>
            </g>
            <g transform="matrix(1.246265,0,0,1.246265,570.170551,1953.747194)">
                <path d="M124.506,227.934C126.504,227.929 126.452,227.916 128.502,227.911C128.822,227.91 129.289,227.909 132.498,227.914C162.74,227.965 162.915,227.712 163.607,228.385C164.768,229.514 164.165,244.082 163.937,244.711C163.11,246.997 151.348,245.627 147.506,245.333C140.462,244.795 139.852,250.231 134.501,250.069C122.555,249.708 119.835,251.221 119.987,246.501C120.303,236.641 119.849,233.701 120.073,230.468C120.282,227.434 121.438,228.179 124.506,227.934Z" style="fill:rgb(89,138,101);"/>
            </g>
            <g transform="matrix(1.246265,0,0,1.246265,570.170551,1953.747194)">
                <path d="M142.487,297.83C142.424,297.815 138.656,297.862 139.158,294.441C139.299,293.48 143.886,283.292 143.841,282.468C143.709,280.053 135.427,282.167 131.512,282.634C123.403,283.602 131.752,271.486 134.227,267.336C142.146,254.056 145.637,246.585 149.044,249.951C151.703,252.578 143.039,267.614 144.437,269.537C145.277,270.693 145.603,270.025 154.561,268.992C163.985,267.905 156.423,278.227 152.997,284.75C146.605,296.922 146.328,297.441 142.487,297.83Z" style="fill:rgb(188,166,145);"/>
            </g>
            <g transform="matrix(1.246265,0,0,1.246265,570.170551,1953.747194)">
                <path d="M223.472,268.063C219.555,268.31 192.16,270.034 174.554,264.408C169.797,262.888 180.849,260.522 181.475,260.388C203.948,255.576 260.947,260.411 237.42,266.186C232.41,267.416 232.417,267.074 223.472,268.063Z" style="fill:rgb(89,138,101);"/>
            </g>
            <g transform="matrix(1.246265,0,0,1.246265,570.170551,1953.747194)">
                <path d="M119.893,296.499C119.894,293.601 119.221,288.763 121.605,287.955C122.146,287.772 123.735,287.844 131.519,288.148C138.409,288.417 132.533,295.06 133.201,298.56C134.084,303.175 147.071,302.512 144.089,308.265C143.293,309.801 142.856,309.795 122.501,309.459C119.142,309.404 119.933,306.121 119.893,296.499Z" style="fill:rgb(89,138,101);"/>
            </g>
            <g transform="matrix(1.246265,0,0,1.246265,570.170551,1953.747194)">
                <path d="M213.817,231.622C215.25,228.618 214.999,228.462 219.289,223.329C231.719,208.453 222.253,201.872 221.764,198.448C220.989,193.025 228.787,195.191 230.855,203.41C234.172,216.592 226.469,224.758 224.813,226.757C215.11,238.467 221.108,240.295 220.323,244.456C219.597,248.301 209.95,246.953 213.817,231.622Z" style="fill:rgb(89,138,101);"/>
            </g>
            <g transform="matrix(1.246265,0,0,1.246265,570.170551,1953.747194)">
                <path d="M212.076,216.409C207.998,230.957 200.678,230.525 205.829,241.344C208.262,246.453 201.528,247.726 199.214,241.618C192.603,224.171 211.455,218.689 205.118,206.695C203.572,203.768 201.714,203.276 204.28,201.202C205.527,200.194 208.294,200.807 210.065,203.777C212.932,208.587 212.187,215.392 212.076,216.409Z" style="fill:rgb(89,138,101);"/>
            </g>
            <g transform="matrix(1.246265,0,0,1.246265,570.170551,1953.747194)">
                <path d="M120.054,274.501C120.026,273.452 119.74,262.609 120.308,261.378C120.67,260.593 125.999,260.492 126.5,260.483C126.872,260.476 134.946,258.736 131.764,264.634C123.438,280.07 123.139,280.413 121.517,280.324C119.617,280.219 119.968,277.015 120.054,274.501Z" style="fill:rgb(89,138,101);"/>
            </g>
            <g transform="matrix(1.246265,0,0,1.246265,570.170551,1953.747194)">
                <path d="M131.887,209.505C131.902,209.385 131.569,206.742 133.465,206.332C134.062,206.203 140.857,206.195 141.499,206.194C149.013,206.185 153.194,204.193 151.729,211.544C151.459,212.901 151.049,213.653 134.512,213.12C131.028,213.007 131.939,209.796 131.887,209.505Z" style="fill:rgb(89,138,101);"/>
            </g>
            <g transform="matrix(1.246265,0,0,1.246265,570.170551,1953.747194)">
                <path d="M183.471,288.619C184.078,288.406 184.06,287.317 184.668,287.104C186.48,286.469 186.291,289.492 208.491,290.053C209.701,290.084 223.284,290.079 231.599,287.728C233.542,287.179 234.395,286.635 234.541,288.695C234.688,290.773 202.266,295.381 183.471,288.619Z" style="fill:white;"/>
            </g>
            <g transform="matrix(1.246265,0,0,1.246265,570.170551,1953.747194)">
                <path d="M186.343,297.612C184.655,293.526 186.302,291.979 190.477,293.557C195.236,295.357 191.815,302.873 186.343,297.612Z" style="fill:white;"/>
            </g>
            <g transform="matrix(1.246265,0,0,1.246265,570.170551,1953.747194)">
                <path d="M197.996,303.074C197.894,301.359 198.223,300.405 199.504,301.494C199.637,301.607 201.542,303.637 197.996,303.074Z" style="fill:white;"/>
            </g>
        </g>
    </g>
</svg>
