<?xml version="1.0" encoding="UTF-8" standalone="no"?>
<!DOCTYPE svg PUBLIC "-//W3C//DTD SVG 1.1//EN" "http://www.w3.org/Graphics/SVG/1.1/DTD/svg11.dtd">
<svg width="100%" height="100%" viewBox="0 0 133 119" version="1.1" xmlns="http://www.w3.org/2000/svg" xmlns:xlink="http://www.w3.org/1999/xlink" xml:space="preserve" xmlns:serif="http://www.serif.com/" style="fill-rule:evenodd;clip-rule:evenodd;stroke-linejoin:round;stroke-miterlimit:2;">
    <g transform="matrix(1,0,0,1,-1458.181078,-2012.860167)">
        <g transform="matrix(0.122238,0,0,0.122238,1350.615161,1810.106585)">
            <g transform="matrix(6.25,0,0,6.25,-3940.514794,461.177425)">
                <path d="M944.089,245.549C944.525,254.441 944.998,258.461 940.627,265.583C938.365,269.27 946.841,272.963 940.568,287.53C935.696,298.845 921.626,306.624 921.588,300.499C921.565,296.857 933.868,293.637 936.6,280.519C937.431,276.533 936.52,270.305 933.347,273.316C929.415,277.047 927.493,274.909 927.33,269.503C926.759,250.494 907.577,234.877 905.496,234.935C904.028,234.977 898.477,243.946 877.532,250.595C856.144,257.384 849.544,261.128 847.077,274.427C846.348,278.354 841.796,277.774 841.324,274.533C840.767,270.703 841.273,270.275 838.25,267.829C831.609,262.455 836.99,291.888 846.492,290.453C852.537,289.54 849.474,294.928 855.695,303.362C866.161,317.552 881.836,328.544 895.41,324.216C912.148,318.878 915.144,303.817 918.951,310.259C921.322,314.27 899.095,342.348 871.77,326.051C850.404,313.307 847.511,298.255 845.545,297.418C843.195,296.418 839.253,296.613 832.609,285.454C826.836,275.756 830.982,264.269 831.605,262.544C832.893,258.974 826.905,247.254 834.97,229.712C849.199,198.764 897.027,190.642 914.267,209.707C916.492,212.168 916.359,212.414 919.538,213.37C939.747,219.446 943.557,242.355 944.089,245.549Z" style="fill:rgb(89,138,101);"/>
            </g>
            <g transform="matrix(6.25,0,0,6.25,-3940.514794,461.177425)">
                <path d="M938.092,255.447C937.924,256.235 935.97,265.406 932.934,264.097C931.789,263.604 931.459,248.135 911.604,231.374C905.884,226.545 903.365,224.875 901.008,229.253C892.793,244.511 864.184,243.581 849.518,257.519C844.818,261.985 844.121,265 842.755,264.055C831.81,256.489 836.314,235.006 845.69,223.652C863.039,202.641 901.605,199.703 911.014,215.777C914.193,221.208 923.548,215.987 932.89,231.269C933.266,231.884 935.753,235.95 936.654,239.456C939.293,249.725 938.371,252.128 938.092,255.447Z" style="fill:rgb(188,166,145);"/>
            </g>
            <g transform="matrix(6.25,0,0,6.25,-3940.514794,461.177425)">
                <path d="M826.098,307.578C830.231,326.725 839.171,329.045 845.257,340.618C847.972,345.78 842.572,347.536 840.933,345.142C834.831,336.228 834.671,336.418 828.168,327.742C816.375,312.004 816.984,286.376 824.563,284.874C825.814,284.626 830.497,283.698 836.418,295.53C839.513,301.715 836.054,304.883 845.217,310.924C865.088,324.025 870.407,346.714 861.419,342.653C857.219,340.755 862.338,329.659 839.22,313.902C829.961,307.59 834.174,299.111 828.236,292.776C823.443,287.664 825.94,306.392 826.098,307.578Z" style="fill:rgb(89,138,101);"/>
            </g>
            <g transform="matrix(6.25,0,0,6.25,-3940.514794,461.177425)">
                <path d="M826.455,218.136C815.49,220.102 814.477,222.115 811.746,234.555C810.958,238.144 807.362,238.405 806.724,234.473C806.546,233.378 806.294,222.381 797.509,219.475C793.576,218.173 784.572,219.148 786.79,214.658C788.696,210.799 801.776,215.398 806.136,197.404C807.059,193.592 806.791,193.522 807.584,192.577C810.525,189.077 812.202,196.065 812.317,196.545C813.661,202.145 814.835,206.946 820.659,210.192C823.64,211.854 832.117,211.453 830.13,216.321C829.651,217.494 826.777,218.071 826.455,218.136Z" style="fill:rgb(89,138,101);"/>
            </g>
            <g transform="matrix(6.25,0,0,6.25,-3940.514794,461.177425)">
                <path d="M792.222,258.391C791.32,261.457 791.865,261.557 790.761,264.602C789.928,266.9 786.303,267.525 785.557,263.489C783.19,250.687 778.864,253.88 772.693,251.112C771.863,250.739 769.194,247.714 774.455,246.332C790.236,242.187 781.682,231.393 787.422,230.191C793.499,228.919 788.696,242.621 800.446,245.678C801.564,245.969 804.579,245.968 804.998,248.439C805.512,251.477 801.257,251.16 798.376,252.163C793.502,253.861 792.436,257.973 792.222,258.391Z" style="fill:rgb(89,138,101);"/>
            </g>
            <g transform="matrix(6.25,0,0,6.25,-3940.514794,461.177425)">
                <path d="M863.344,244.119C850.703,249.416 851.651,250.955 847.366,254.335C844.481,256.611 839.862,254.081 844.81,248.79C856.895,235.87 877.034,237.119 889.687,223.668C893.908,219.18 897.389,224.354 893.397,228.4C888.439,233.424 884.088,236.319 863.344,244.119Z" style="fill:rgb(89,138,101);"/>
            </g>
            <g transform="matrix(6.25,0,0,6.25,-3940.514794,461.177425)">
                <path d="M813.878,271.395C813.801,271.176 813.076,266.97 808.515,265.458C808.241,265.367 803.502,263.795 807.688,261.942C812.538,259.794 812.523,259.42 814.23,254.387C815.114,251.781 816.899,253.032 817.159,253.681C819.31,259.038 818.883,259.862 824.304,261.908C826.839,262.864 825.956,264.337 823.381,265.051C815.11,267.341 819.132,275.312 815.43,274.784C814.175,274.605 814.646,274.067 813.878,271.395Z" style="fill:rgb(89,138,101);"/>
            </g>
            <g transform="matrix(6.25,0,0,6.25,-3940.514794,461.177425)">
                <path d="M812.24,219.268C812.104,219.438 811.928,219.572 811.793,219.741C810.822,220.953 810.044,223.974 807.964,221.13C803.987,215.691 798.358,216.099 802.417,213.39C808.562,209.287 808.333,203.725 811.04,207.817C815,213.806 819.022,213.778 815.942,215.957C813.89,217.409 813.982,217.45 812.24,219.268Z" style="fill:rgb(188,166,145);"/>
            </g>
            <g transform="matrix(6.25,0,0,6.25,-3940.514794,461.177425)">
                <path d="M896.368,308.195C881.602,313.291 871.82,302.684 877.552,301.704C882.479,300.862 882.543,307.689 895.459,303.381C895.774,303.276 899.105,302.164 899.453,304.51C899.797,306.831 896.829,307.967 896.368,308.195Z" style="fill:rgb(89,138,101);"/>
            </g>
            <g transform="matrix(6.25,0,0,6.25,-3940.514794,461.177425)">
                <path d="M908.521,283.918C896.617,283.646 897.879,277.439 900.496,277.39C902.25,277.358 908.181,281.825 915.615,276.678C919.844,273.75 921.583,277.725 918.471,280.466C915.36,283.206 909.359,283.831 908.521,283.918Z" style="fill:rgb(89,138,101);"/>
            </g>
            <g transform="matrix(6.25,0,0,6.25,-3940.514794,461.177425)">
                <path d="M864.539,259.903C865.605,259.866 876.393,259.489 877.625,262.433C879.564,267.068 869.662,264.728 866.501,264.467C865.176,264.358 861.046,265.434 859.393,264.658C858.886,264.42 856.055,261.159 864.539,259.903Z" style="fill:rgb(89,138,101);"/>
            </g>
            <g transform="matrix(6.25,0,0,6.25,-3940.514794,461.177425)">
                <path d="M865.442,278.95C873.218,279.516 875.605,275.413 876.343,278.558C877.922,285.29 854.197,284.64 857.393,277.433C858.45,275.051 860.499,277.896 865.442,278.95Z" style="fill:rgb(89,138,101);"/>
            </g>
            <g transform="matrix(6.25,0,0,6.25,-3940.514794,461.177425)">
                <path d="M904.571,259.936C905.359,259.887 911.079,259.535 914.411,260.782C917.722,262.022 916.806,265.134 912.484,264.741C907.407,264.278 907.424,264.253 902.436,265.123C902.061,265.188 898.142,265.871 897.971,263.474C897.785,260.85 904.151,260.037 904.571,259.936Z" style="fill:rgb(89,138,101);"/>
            </g>
            <g transform="matrix(6.25,0,0,6.25,-3940.514794,461.177425)">
                <path d="M785.674,251.322C783.666,249.503 782.272,249.107 784.274,247.291C787.498,244.369 787.721,241.69 789.72,244.294C791.21,246.235 791.637,245.798 793.143,247.758C793.994,248.867 790.894,251.158 789.726,252.711C788.032,254.961 787.576,253.327 785.674,251.322Z" style="fill:rgb(188,166,145);"/>
            </g>
            <g transform="matrix(6.25,0,0,6.25,-3940.514794,461.177425)">
                <path d="M814.305,264.685C811.96,260.216 817.671,260.825 817.539,263.503C817.391,266.511 814.542,264.825 814.305,264.685Z" style="fill:rgb(188,166,145);"/>
            </g>
        </g>
    </g>
</svg>
