<?xml version="1.0" encoding="UTF-8" standalone="no"?>
<!DOCTYPE svg PUBLIC "-//W3C//DTD SVG 1.1//EN" "http://www.w3.org/Graphics/SVG/1.1/DTD/svg11.dtd">
<svg width="100%" height="100%" viewBox="0 0 110 109" version="1.1" xmlns="http://www.w3.org/2000/svg" xmlns:xlink="http://www.w3.org/1999/xlink" xml:space="preserve" xmlns:serif="http://www.serif.com/" style="fill-rule:evenodd;clip-rule:evenodd;stroke-linejoin:round;stroke-miterlimit:2;">
    <g transform="matrix(1,0,0,1,-66.519584,-730.204691)">
        <g transform="matrix(0.107915,0,0,0.107915,57.778533,533.084913)">
            <g transform="matrix(6.25,0,0,6.25,-529.665988,725.361671)">
                <path d="M260.098,249.491C258.237,264.035 245.062,264.546 234.251,279.311C218.087,301.389 212.365,294.49 207.62,299.607C207.298,299.954 202.45,310.411 193.334,304.79C191.129,303.43 190.927,303.41 184.444,305.305C180.419,306.482 185.123,310.829 180.28,318.363C177.367,322.894 173.329,326.314 182.586,330.305C182.953,330.463 186.051,331.799 186.397,333.525C186.705,335.061 185.828,338.932 180.688,336.141C179.911,335.719 167.312,331.663 171.416,321.466C171.622,320.955 180.1,308.967 175.394,306.711C171.516,304.852 174.636,317.061 162.746,323.947C154.844,328.523 144.713,323.597 143.58,323.877C141.61,324.363 120.447,343.01 112.832,331.3C109.596,326.324 113.35,322.433 113.05,302.509C112.804,286.181 108.226,261.009 134.219,245.033C154.798,232.385 178.6,241.455 201.513,243.316C239.517,246.403 258.425,231.37 260.098,249.491Z" style="fill:rgb(89,138,101);"/>
            </g>
            <g transform="matrix(6.25,0,0,6.25,-529.665988,725.361671)">
                <path d="M180.577,299.898C168.238,301.673 158.17,299.319 146.682,311.664C133.216,326.134 117.16,334.18 117.778,324.519C118.115,319.253 119.595,317.454 119.196,303.511C118.41,276.083 118.112,267.87 130.924,254.917C140.197,245.542 154.313,244.892 156.512,244.791C183.632,243.544 184.219,249.885 186.57,258.482C188.776,266.55 189.698,295.411 188.801,296.68C187.273,298.842 183.225,299.385 180.577,299.898Z" style="fill:rgb(253,253,253);"/>
            </g>
            <g transform="matrix(6.25,0,0,6.25,-529.665988,725.361671)">
                <path d="M235.436,248.081C237.503,247.795 248.597,245.635 251.35,246.887C260.261,250.936 239.973,265.125 238.885,265.98C226.063,276.05 225.105,287.77 209.571,291.788C200.642,294.097 208.461,274.39 201.663,254.441C200.48,250.972 197.46,251.837 197,253.597C196.374,255.99 199.376,255.794 199.853,279.491C200.139,293.706 203.048,299.212 199.368,300.148C191.028,302.271 199.112,271.48 190.395,250.54C187.874,244.482 194.654,253.163 235.436,248.081Z" style="fill:rgb(253,253,253);"/>
            </g>
            <g transform="matrix(6.25,0,0,6.25,-529.665988,725.361671)">
                <path d="M240.028,324.422C239.635,325.936 236.649,337.444 223.6,335.015C220.535,334.445 206.867,326.136 217.704,311.646C226.846,299.423 226.175,298.948 227.144,298.045C230.567,294.859 230.567,303.185 235.843,310.244C236.127,310.624 237.584,312.574 238.754,315.399C240.831,320.419 240.067,323.763 240.028,324.422Z" style="fill:rgb(89,138,101);"/>
            </g>
            <g transform="matrix(6.25,0,0,6.25,-529.665988,725.361671)">
                <path d="M197.588,202.073C193.541,201.695 191.664,201.539 191.14,199.618C189.878,194.987 196.511,195.714 199.41,194.316C210.205,189.108 204.661,177.149 209.447,176.262C213.596,175.494 212.61,182.167 213.468,185.508C215.914,195.04 223.1,194.97 225.522,195.348C230.378,196.104 229.484,200.856 226.461,201.282C215.25,202.863 214.027,203.919 212.485,214.498C211.858,218.797 207.314,218.218 206.931,214.466C206.171,207.023 204.66,204.22 197.588,202.073Z" style="fill:rgb(89,138,101);"/>
            </g>
            <g transform="matrix(6.25,0,0,6.25,-529.665988,725.361671)">
                <path d="M132.143,217.399C131.654,219.906 131.436,223.978 128.486,223.598C123.669,222.978 129.522,212.725 116.452,210.913C116.127,210.868 113.245,210.468 112.634,209.421C110.814,206.306 115.023,205.26 115.418,205.162C131.84,201.08 122.232,188.299 128.5,188.307C133.474,188.313 127.797,201.659 140.429,203.818C141.273,203.962 144.779,203.772 145.12,206.509C145.473,209.34 141.164,208.752 137.444,210.373C133.401,212.136 132.784,215.354 132.143,217.399Z" style="fill:rgb(89,138,101);"/>
            </g>
            <g transform="matrix(6.25,0,0,6.25,-529.665988,725.361671)">
                <path d="M236.046,298.499C236.289,293.117 236.858,293.2 237.075,288.471C237.321,283.121 237.184,283.155 237.251,281.486C237.351,278.986 239.595,277.626 242.354,280.634C250.286,289.282 253.187,290.511 254.677,294.43C260.059,308.588 237.15,315.22 236.046,298.499Z" style="fill:rgb(89,138,101);"/>
            </g>
            <g transform="matrix(6.25,0,0,6.25,-529.665988,725.361671)">
                <path d="M181.937,207.447C183.248,213.889 183.943,214.196 190.404,215.912C192.69,216.52 194.782,219.311 189.468,220.329C178.338,222.461 184.25,231.481 179.5,231.525C174.593,231.57 180.856,223.309 170.44,220.786C169.461,220.549 167.3,220.468 166.833,218.461C165.972,214.766 175.644,217.692 177.159,208.438C177.188,208.26 177.152,203.986 179.536,203.804C179.693,203.792 180.701,203.716 181.338,204.614C181.659,205.066 181.91,207.216 181.937,207.447Z" style="fill:rgb(89,138,101);"/>
            </g>
            <g transform="matrix(6.25,0,0,6.25,-529.665988,725.361671)">
                <path d="M223.393,329.693C214.879,323.452 219.459,316.298 225.127,310.174C226.551,308.635 227.738,305.834 229.071,308.693C229.713,310.069 229.427,310.196 233.271,315.655C237.373,321.479 234.855,327.375 230.511,329.521C226.388,331.559 225.719,330.636 223.393,329.693Z" style="fill:rgb(251,251,251);"/>
            </g>
            <g transform="matrix(6.25,0,0,6.25,-529.665988,725.361671)">
                <path d="M112.046,228.665C115.218,235.57 121.177,231.063 120.665,235.525C120.308,238.628 112.903,235.356 111.35,243.472C111.279,243.844 110.274,249.093 107.619,246.395C106.431,245.187 108.433,238.905 101.517,237.414C99.232,236.921 98.491,237.697 97.798,235.446C96.698,231.869 105.838,235.202 106.843,226.544C106.851,226.477 106.777,223.594 108.314,223.047C111.064,222.069 111.036,225.125 112.046,228.665Z" style="fill:rgb(89,138,101);"/>
            </g>
            <g transform="matrix(6.25,0,0,6.25,-529.665988,725.361671)">
                <path d="M163.394,308.066C165.462,307.848 166.296,307.422 166.343,309.507C166.441,313.902 162.196,317.176 161.599,317.636C156.808,321.332 146.004,320.735 150.455,316.457C158.497,308.729 160.652,308.908 163.394,308.066Z" style="fill:rgb(252,252,252);"/>
            </g>
            <g transform="matrix(6.25,0,0,6.25,-529.665988,725.361671)">
                <path d="M241.949,291.572C242.272,290.481 241.929,290.457 242.259,289.339C242.274,289.289 242.321,289.129 242.739,288.898C243.012,288.747 243.494,288.481 246.027,290.996C255.633,300.538 247.392,303.292 245.528,303.07C239.11,302.307 241.717,292.938 241.949,291.572Z" style="fill:rgb(252,252,252);"/>
            </g>
            <g transform="matrix(6.25,0,0,6.25,-529.665988,725.361671)">
                <path d="M213.419,200.402C212.065,201.66 212.055,201.625 211.034,203.18C208.899,206.428 207.81,201.345 204.451,199.562C200.262,197.338 205.688,197.312 208.164,193.26C208.491,192.725 209.207,190.024 211.246,192.705C214.594,197.11 218.783,197.259 215.338,199.225C214.332,199.799 214.346,199.743 213.419,200.402Z" style="fill:rgb(192,151,151);"/>
            </g>
            <g transform="matrix(6.25,0,0,6.25,-529.665988,725.361671)">
                <path d="M227.563,223.445C226.684,221.564 226.224,221.607 226.667,219.542C227.142,217.329 229.212,216.677 229.526,216.578C235.367,214.738 237.235,222.768 232.532,224.575C229.955,225.565 229.883,224.974 227.563,223.445Z" style="fill:rgb(89,138,101);"/>
            </g>
            <g transform="matrix(6.25,0,0,6.25,-529.665988,725.361671)">
                <path d="M126.323,209.704C123.664,208.117 123.641,207.752 123.622,207.473C123.562,206.54 123.821,206.584 124.256,206.273C128.058,203.559 126.935,202.011 128.565,201.931C129.204,201.899 129.229,201.864 129.619,202.357C130.894,203.97 130.799,203.978 130.92,204.104C131.921,205.155 132.154,204.795 133.217,205.795C134.457,206.961 131.599,208.554 129.874,210.897C128.774,212.392 127.976,211.554 126.323,209.704Z" style="fill:rgb(192,151,151);"/>
            </g>
            <g transform="matrix(6.25,0,0,6.25,-529.665988,725.361671)">
                <path d="M227.289,321.601C228.312,324.194 228.08,325.527 225.39,324.878C219.274,323.404 225.5,310.144 228.394,313.598C229.034,314.361 227.863,316.414 227.74,316.63C226.44,318.908 226.697,319.04 227.289,321.601Z" style="fill:rgb(89,138,101);"/>
            </g>
            <g transform="matrix(6.25,0,0,6.25,-529.665988,725.361671)">
                <path d="M217.551,233.922C217.176,233.831 216.771,233.935 216.396,233.844C212.499,232.896 215.388,226.608 218.763,229.084C222.469,231.803 217.917,233.764 217.551,233.922Z" style="fill:rgb(89,138,101);"/>
            </g>
            <g transform="matrix(6.25,0,0,6.25,-529.665988,725.361671)">
                <path d="M181.345,219.324C178.112,222.058 176.826,217.712 176.879,217.571C177.187,216.75 178.866,215.204 179.468,215.167C180.772,215.087 180.56,215.578 181.524,216.478C183.562,218.383 181.688,218.717 181.345,219.324Z" style="fill:rgb(192,151,151);"/>
            </g>
            <g transform="matrix(6.25,0,0,6.25,-529.665988,725.361671)">
                <path d="M110.289,233.721C110.352,233.983 110.688,234.122 110.752,234.384C111.614,237.971 105.591,236.224 107.835,233.841C107.934,233.736 108.492,233.144 109.557,233.32C109.831,233.365 110.014,233.676 110.289,233.721Z" style="fill:rgb(192,151,151);"/>
            </g>
        </g>
    </g>
</svg>
