<?xml version="1.0" encoding="UTF-8" standalone="no"?>
<!DOCTYPE svg PUBLIC "-//W3C//DTD SVG 1.1//EN" "http://www.w3.org/Graphics/SVG/1.1/DTD/svg11.dtd">
<svg width="100%" height="100%" viewBox="0 0 111 109" version="1.1" xmlns="http://www.w3.org/2000/svg" xmlns:xlink="http://www.w3.org/1999/xlink" xml:space="preserve" xmlns:serif="http://www.serif.com/" style="fill-rule:evenodd;clip-rule:evenodd;stroke-linejoin:round;stroke-miterlimit:2;">
    <g transform="matrix(1,0,0,1,-558.021081,-727.649191)">
        <g transform="matrix(0.117103,0,0,0.117103,477.866062,485.499027)">
            <g transform="matrix(6.25,0,0,6.25,-2776.688049,784.693628)">
                <path d="M645.474,255.949C640.428,255.649 634.251,255.228 626.461,257.374C618.496,259.568 612.929,263.283 611.862,263.995C609.048,265.873 609.585,266.713 611.64,269.394C612.194,270.117 617.621,277.196 618.666,278.352C623.438,283.632 664.674,337.355 666.474,337.612C667.71,337.789 672.065,334.532 674.684,331.665C682.831,322.744 684.07,315.452 684.438,314.474C684.981,313.029 687.874,311.903 689.227,311.059C692.389,309.087 693.412,306.204 694.494,306.524C695.186,306.729 695.98,307.073 693.482,315.495C676.307,373.397 585.098,363.13 584.568,299.5C584.287,265.809 616.327,241.251 653.56,249.265C656.267,249.848 655.749,250.736 655.235,253.451C654.703,256.265 655.354,257.778 652.568,257.165C649.016,256.382 649.06,256.324 645.474,255.949Z" style="fill:rgb(89,138,101);"/>
            </g>
            <g transform="matrix(6.25,0,0,6.25,-2776.688049,784.693628)">
                <path d="M704.167,251.468C704.027,252.301 703.016,258.306 700.066,261.2C698.665,262.574 698.495,263.555 700.427,263.747C704.127,264.116 705.777,263.739 705.095,267.428C704.837,268.823 703.311,277.076 697.378,283.399C695.58,285.315 694.235,285.418 695.546,286.446C695.984,286.79 696.654,286.646 697.16,286.879C699.244,287.838 693.679,302.759 686.57,306.624C676.116,312.307 667.753,306.159 664.653,309.634C659.23,315.713 659.051,320.751 655.417,316.572C652.558,313.284 654.787,312.936 657.125,309.259C660.727,303.596 661.186,303.093 659.574,301.431C646.615,288.067 650.498,283.128 658.179,271.293C662.446,264.719 658.837,263.888 659.56,258.507C660.417,252.129 662.291,249.756 667.061,242.213C667.983,240.754 667.823,240.072 669.508,240.461C671.18,240.847 671.303,241.172 671.682,240.638C671.897,240.333 672.059,237.498 674.129,234.261C677.566,228.888 678.983,229.92 683.134,222.302C683.324,221.952 684.179,219.498 685.494,219.556C687.134,219.628 693.36,231.346 693.831,236.449C694.31,241.633 699.449,234.859 701.524,236.466C702.331,237.092 702.949,239.909 703.697,243.462C704.269,246.18 704.179,250.826 704.167,251.468Z" style="fill:rgb(89,138,101);"/>
            </g>
            <g transform="matrix(6.25,0,0,6.25,-2776.688049,784.693628)">
                <path d="M594.078,311.617C587.951,288.029 602.082,272.357 602.812,271.905C603.785,271.302 604.565,271.084 613.069,281.877C623.199,294.734 623.266,294.664 624.103,295.814C628.356,301.648 628.505,301.486 632.974,307.115C648.47,326.629 648.647,326.435 649.942,328.167C656.258,336.617 661.578,341.377 658.566,342.623C653.313,344.795 647.463,345.128 644.501,345.507C635.924,346.606 616.544,343.639 605.125,330.828C597.004,321.719 595.946,317.749 594.078,311.617Z" style="fill:rgb(192,151,151);"/>
            </g>
            <g transform="matrix(6.25,0,0,6.25,-2776.688049,784.693628)">
                <path d="M591.562,224.065C587.167,223.534 585.611,223.085 580.411,224.005C579.589,224.15 574.813,224.995 570.683,227.776C558.759,235.803 559.099,241.534 561.401,247.538C566.947,261.998 563.808,284.483 565.853,295.423C566.943,301.255 575.273,297.888 577.545,297.882C580.785,297.873 579.687,302.92 579.327,303.357C578.557,304.291 570.605,305.007 569.491,305.021C565.484,305.072 562.05,302.915 560.786,300.358C557.76,294.235 559.806,270.682 557.225,255.549C555.742,246.855 547.176,238.23 564.395,224.365C572.229,218.058 589.07,209.821 625.301,230.839C632.523,235.029 633.12,242.763 625.543,244.669C618.113,246.538 618.179,246.752 617.521,246.855C615.988,247.095 615.838,245.619 615.82,245.443C615.468,241.979 617.242,240.882 617.588,240.668C619.544,239.459 628.861,239.693 620.64,235.212C605.327,226.865 594.004,224.562 591.562,224.065Z" style="fill:rgb(89,138,101);"/>
            </g>
            <g transform="matrix(6.25,0,0,6.25,-2776.688049,784.693628)">
                <path d="M642.441,205.967C647.26,206.871 666.817,210.112 670.022,217.722C671.893,222.164 670.076,230.991 666.533,234.533C663.514,237.551 660.798,242.206 659.948,240.338C659.908,240.25 660.785,234.745 661.251,233.415C663.802,226.137 668.678,220.277 658.532,216.418C644.495,211.079 621.96,208.719 610.245,216.098C609.664,216.464 608.523,217.836 602.477,215.535C601.777,215.269 601.257,214.156 602.424,213.428C608.081,209.9 615.043,203.17 642.441,205.967Z" style="fill:rgb(89,138,101);"/>
            </g>
            <g transform="matrix(6.25,0,0,6.25,-2776.688049,784.693628)">
                <path d="M666.15,255.351C666.829,253.891 669.015,247.795 671.054,249.96C675.328,254.496 676.413,257.676 676.676,258.446C678.063,262.509 677.168,274.125 672.346,270.747C665.33,265.833 664.006,261.545 666.15,255.351Z" style="fill:rgb(253,253,253);"/>
            </g>
            <g transform="matrix(6.25,0,0,6.25,-2776.688049,784.693628)">
                <path d="M688.342,270.042C689.055,269.828 694.387,268.232 697.604,269.249C700.382,270.128 695.494,281.695 685.528,282.765C677.935,283.581 678.682,281.114 678.846,280.576C681.335,272.363 685.63,271.061 688.342,270.042Z" style="fill:rgb(253,253,253);"/>
            </g>
            <g transform="matrix(6.25,0,0,6.25,-2776.688049,784.693628)">
                <path d="M687.873,297.733C686.682,299.312 685.092,302.37 677.488,303.401C677.175,303.444 670.136,303.949 670.088,301.5C670.055,299.838 674.455,291.674 681.452,291.088C681.876,291.053 689.54,290.796 690.184,291.741C690.205,291.772 691.263,292.062 687.873,297.733Z" style="fill:rgb(253,253,253);"/>
            </g>
            <g transform="matrix(6.25,0,0,6.25,-2776.688049,784.693628)">
                <path d="M668,283.383C668.182,284.343 669.408,290.809 665.242,295.283C662.541,298.183 657.234,291.288 657.099,286.513C656.97,281.929 662.129,274.432 663.358,274.965C665.837,276.038 667.783,282.645 668,283.383Z" style="fill:rgb(253,253,253);"/>
            </g>
            <g transform="matrix(6.25,0,0,6.25,-2776.688049,784.693628)">
                <path d="M698.153,247.545C698.609,255.244 696.819,257.996 688.648,261.837C684.469,263.801 684.392,261.154 684.972,256.576C686.008,248.406 696.628,243.156 697.701,245.362C697.779,245.522 697.735,245.523 698.153,247.545Z" style="fill:rgb(253,253,253);"/>
            </g>
            <g transform="matrix(6.25,0,0,6.25,-2776.688049,784.693628)">
                <path d="M601.842,301.44C601.516,298.66 600.557,292.132 601.565,291.622C602.745,291.024 603.763,294.139 605.693,298.408C608.388,304.372 609.675,305.571 620.383,302.165C624.34,300.906 625.484,305.461 623.375,306.227C603.352,313.496 603.2,306.349 601.842,301.44Z" style="fill:rgb(89,138,101);"/>
            </g>
            <g transform="matrix(6.25,0,0,6.25,-2776.688049,784.693628)">
                <path d="M682.401,247.412C680.681,249.814 679.655,251.244 678.391,248.568C676.106,243.727 676.055,239.282 683.589,231.59C687.408,227.691 688.773,237.955 688.102,240.392C687.366,243.07 686.355,243.333 682.401,247.412Z" style="fill:rgb(253,253,253);"/>
            </g>
            <g transform="matrix(6.25,0,0,6.25,-2776.688049,784.693628)">
                <path d="M621.978,268.667C624.568,265.943 650.515,258.208 644.53,267.523C643.263,269.495 641.06,268.842 633.484,269.29C632.723,269.335 622.929,269.694 622.537,269.45C622.265,269.28 622.25,268.836 621.978,268.667Z" style="fill:rgb(89,138,101);"/>
            </g>
            <g transform="matrix(6.25,0,0,6.25,-2776.688049,784.693628)">
                <path d="M637.626,325.735C637.888,325.608 640.38,324.397 641.177,324.951C641.443,325.135 643.533,326.586 643.253,328.424C643.037,329.846 633.346,332.819 631.444,333.021C630.731,333.097 625.052,333.701 622.498,333.509C620.644,333.37 620.7,331.943 622.497,331.494C630.382,329.521 630.32,329.365 637.626,325.735Z" style="fill:rgb(89,138,101);"/>
            </g>
            <g transform="matrix(6.25,0,0,6.25,-2776.688049,784.693628)">
                <path d="M645.716,278.699C640.097,282.822 639.161,271.997 644.49,273.528C648.336,274.633 645.946,278.341 645.716,278.699Z" style="fill:rgb(89,138,101);"/>
            </g>
            <g transform="matrix(6.25,0,0,6.25,-2776.688049,784.693628)">
                <path d="M577.604,254.929C579.448,255.255 579.617,254.962 580.167,255.747C582.207,258.662 576.493,260.738 575.886,257.435C575.575,255.744 576.351,256.049 577.604,254.929Z" style="fill:rgb(89,138,101);"/>
            </g>
            <g transform="matrix(6.25,0,0,6.25,-2776.688049,784.693628)">
                <path d="M601.424,245.432C601.121,245.49 600.936,245.856 600.632,245.914C596.944,246.614 598.556,240.744 601.215,242.844C601.97,243.44 601.857,244.411 601.84,244.556C601.802,244.877 601.461,245.111 601.424,245.432Z" style="fill:rgb(89,138,101);"/>
            </g>
            <g transform="matrix(6.25,0,0,6.25,-2776.688049,784.693628)">
                <path d="M645.405,224.404C645.81,224.312 646.129,223.973 646.534,223.881C649.094,223.3 648.701,228.538 645.714,227.11C644.269,226.419 645.041,225.993 645.405,224.404Z" style="fill:rgb(89,138,101);"/>
            </g>
        </g>
    </g>
</svg>
