<?xml version="1.0" encoding="UTF-8" standalone="no"?>
<!DOCTYPE svg PUBLIC "-//W3C//DTD SVG 1.1//EN" "http://www.w3.org/Graphics/SVG/1.1/DTD/svg11.dtd">
<svg width="100%" height="100%" viewBox="0 0 128 109" version="1.1" xmlns="http://www.w3.org/2000/svg" xmlns:xlink="http://www.w3.org/1999/xlink" xml:space="preserve" xmlns:serif="http://www.serif.com/" style="fill-rule:evenodd;clip-rule:evenodd;stroke-linejoin:round;stroke-miterlimit:2;">
    <g transform="matrix(1,0,0,1,-817.15305,-728.89031)">
        <g transform="matrix(0.112021,0,0,0.112021,695.301429,493.205177)">
            <g transform="matrix(6.25,0,0,6.25,-3693.134113,852.027228)">
                <path d="M927.92,288.508C927.751,285.819 928.06,285.758 926.968,283.289C926.5,282.229 925.883,281.266 924.438,280.63C917.764,277.695 914.046,286.914 909.704,285.083C904.284,282.799 916.745,271.352 886.806,251.056C876.242,243.895 877.055,238.362 873.647,241.658C855.803,258.91 830.428,258.586 810.461,267.417C798.785,272.582 805.12,284.436 800.461,285.338C797.911,285.831 795.257,282.902 795.213,282.869C789.091,278.22 783.048,279.728 782.852,287.51C782.711,293.092 784.516,297.415 784.803,298.422C786.199,303.322 780.404,304.549 779.413,300.522C775.587,284.982 777.453,278.239 785.494,275.484C789.037,274.271 787.403,272.804 786.96,271.374C782.981,258.55 788.593,239.11 795.222,229.323C820.104,192.59 872.954,195.496 886.023,211.907C889.091,215.76 889.867,214.606 895.408,216.748C910.653,222.639 920.567,238.16 923.012,249.605C926.167,264.375 924.188,267.803 923.283,272.464C922.488,276.558 929.652,273.577 932.703,282.437C934.429,287.449 932.111,304.203 927.544,302.253C923.886,300.691 927.28,296.785 927.92,288.508Z" style="fill:rgb(89,138,101);"/>
            </g>
            <g transform="matrix(6.25,0,0,6.25,-3693.134113,852.027228)">
                <path d="M856.52,206.126C866.225,207.219 875.98,207.538 882.708,217.37C886.027,222.221 895.5,218.375 907.814,232.226C922.776,249.056 920.518,274.006 914.46,276.38C912.384,277.193 913.441,271.82 908.817,264.319C899.424,249.081 881.869,244.731 879.283,234.559C879.197,234.218 878.37,230.965 877.479,230.536C872.811,228.289 875.157,233.936 865.853,240.965C841.878,259.08 803.609,253.937 797.772,273.597C797.091,275.889 796.333,277.04 794.943,275.098C786.262,262.969 791.84,227.618 822.649,212.837C823.797,212.286 836.917,205.245 856.52,206.126Z" style="fill:rgb(253,253,253);"/>
            </g>
            <g transform="matrix(6.25,0,0,6.25,-3693.134113,852.027228)">
                <path d="M894.483,340.045C896.677,339.935 913.085,339.114 920.096,330.155C933.125,313.504 913.937,301.686 911.79,292.429C911.253,290.115 913.286,288.727 914.48,288.891C917.063,289.244 916.54,290.046 917.691,292.409C921.855,300.958 935.695,312.09 927.297,329.403C922.211,339.887 908.097,344.361 901.456,345.076C887.437,346.587 879.767,343.555 878.528,343.31C874.222,342.459 875.507,348.968 857.497,349.18C835.969,349.433 836.517,342.248 830.467,343.276C788.753,350.361 774.514,321.508 789.231,301.31C795.047,293.327 795.74,290.002 798.513,290.427C800.657,290.756 802.216,293.12 795.695,301.644C778.169,324.549 798.153,338.456 816.488,338.897C832.384,339.28 833.161,335.454 837.153,338.899C843.434,344.319 864.653,346.624 872.918,338.945C877.856,334.357 880.116,340.17 894.483,340.045Z" style="fill:rgb(89,138,101);"/>
            </g>
            <g transform="matrix(6.25,0,0,6.25,-3693.134113,852.027228)">
                <path d="M812.559,251.939C811.468,252.068 798.285,254.411 801.422,248.448C803.201,245.067 814.759,249.981 842.597,238.742C853.621,234.29 860.586,226.222 861.828,224.783C864.211,222.023 869.466,224.167 864.734,229.695C848.473,248.691 817.408,251.288 812.559,251.939Z" style="fill:rgb(89,138,101);"/>
            </g>
            <g transform="matrix(6.25,0,0,6.25,-3693.134113,852.027228)">
                <path d="M885.972,305.53C889.499,295.096 904.559,299.219 905.425,299.654C915.767,304.859 903.905,314.107 892.5,311.502C885.876,309.99 886.101,306.084 885.972,305.53Z" style="fill:rgb(192,151,151);"/>
            </g>
            <g transform="matrix(6.25,0,0,6.25,-3693.134113,852.027228)">
                <path d="M814.487,314.103C796.924,313.495 800.126,302.706 807.422,301.194C822.739,298.019 831.193,311.076 817.564,313.767C817.321,313.814 817.336,313.791 814.487,314.103Z" style="fill:rgb(192,151,151);"/>
            </g>
            <g transform="matrix(6.25,0,0,6.25,-3693.134113,852.027228)">
                <path d="M823.377,290.207C820.459,291.765 820.49,291.768 818.039,294.004C813.775,297.895 809.829,293.393 812.568,291.595C814.981,290.011 815.011,290.099 817.163,288.131C828.118,278.114 844.878,290.891 839.688,294.794C835.781,297.732 834.766,286.69 823.377,290.207Z" style="fill:rgb(89,138,101);"/>
            </g>
            <g transform="matrix(6.25,0,0,6.25,-3693.134113,852.027228)">
                <path d="M886.423,283.978C892.111,285.605 891.854,286.147 895.775,289.122C896.263,289.493 899.305,290.297 898.796,292.589C898.472,294.047 895.724,294.826 893.558,293.406C893.399,293.302 884.915,284.848 876.77,291.82C876.593,291.972 872.868,296.849 870.708,294.325C868.669,291.943 873.679,287.514 875.454,286.433C880.854,283.142 883.984,283.831 886.423,283.978Z" style="fill:rgb(89,138,101);"/>
            </g>
            <g transform="matrix(6.25,0,0,6.25,-3693.134113,852.027228)">
                <path d="M858.441,316.136C857.131,316.238 847.308,317.008 842.733,311.325C841.375,309.637 842.181,304.689 846.862,308.035C859.598,317.14 866.266,303.128 869.016,307.814C871.93,312.78 859.486,315.876 858.441,316.136Z" style="fill:rgb(89,138,101);"/>
            </g>
            <g transform="matrix(6.25,0,0,6.25,-3693.134113,852.027228)">
                <path d="M884.504,270.153C885.865,270.24 893.037,270.321 892.648,273.524C892.253,276.775 885.735,273.834 880.432,275.22C879.127,275.561 877.134,276.51 875.447,275.567C875.009,275.323 871.796,272.433 879.561,270.835C882.032,270.327 881.984,270.292 884.504,270.153Z" style="fill:rgb(89,138,101);"/>
            </g>
            <g transform="matrix(6.25,0,0,6.25,-3693.134113,852.027228)">
                <path d="M832.43,275.879C822.461,273.487 821.831,276.761 819.236,274.875C812.731,270.15 834.74,268.362 835.794,273.422C836.34,276.039 835.116,275.757 832.43,275.879Z" style="fill:rgb(89,138,101);"/>
            </g>
            <g transform="matrix(6.25,0,0,6.25,-3693.134113,852.027228)">
                <path d="M935.659,337.355C934.727,336.31 933.176,334.643 933.107,333.527C932.775,328.173 941.228,334.348 942.01,337.613C942.128,338.108 941.737,343.723 935.659,337.355Z" style="fill:rgb(89,138,101);"/>
            </g>
            <g transform="matrix(6.25,0,0,6.25,-3693.134113,852.027228)">
                <path d="M943.607,319.805C935.155,322.489 935.555,319.207 935.738,318.597C936.381,316.454 947.716,312.488 946.711,317.551C946.488,318.674 943.893,319.693 943.607,319.805Z" style="fill:rgb(89,138,101);"/>
            </g>
            <g transform="matrix(6.25,0,0,6.25,-3693.134113,852.027228)">
                <path d="M770.616,332.611C771.646,331.591 774.776,328.425 776.462,328.824C781.746,330.074 772.172,340.255 769.593,336.436C768.336,334.575 769.318,334.478 770.616,332.611Z" style="fill:rgb(89,138,101);"/>
            </g>
            <g transform="matrix(6.25,0,0,6.25,-3693.134113,852.027228)">
                <path d="M772.551,318.052C771.961,317.925 766.07,316.663 765.439,315.545C762.144,309.715 776.362,312.904 775.875,316.577C775.692,317.966 772.842,318.044 772.551,318.052Z" style="fill:rgb(89,138,101);"/>
            </g>
            <g transform="matrix(6.25,0,0,6.25,-3693.134113,852.027228)">
                <path d="M788.108,345.499C788.187,344.724 787.871,343.245 789.304,342.168C792.68,339.631 794.386,349.917 792.51,351.511C792.055,351.897 788.452,354.485 788.108,345.499Z" style="fill:rgb(89,138,101);"/>
            </g>
            <g transform="matrix(6.25,0,0,6.25,-3693.134113,852.027228)">
                <path d="M923.108,351.467C923.029,351.863 922.003,356.988 919.3,354.784C917.44,353.267 918.484,345.591 920.575,344.773C920.956,344.624 922.3,344.792 922.646,345.364C923.689,347.09 923.146,350.596 923.108,351.467Z" style="fill:rgb(89,138,101);"/>
            </g>
        </g>
    </g>
</svg>
