<?xml version="1.0" encoding="UTF-8" standalone="no"?>
<!DOCTYPE svg PUBLIC "-//W3C//DTD SVG 1.1//EN" "http://www.w3.org/Graphics/SVG/1.1/DTD/svg11.dtd">
<svg width="100%" height="100%" viewBox="0 0 115 109" version="1.1" xmlns="http://www.w3.org/2000/svg" xmlns:xlink="http://www.w3.org/1999/xlink" xml:space="preserve" xmlns:serif="http://www.serif.com/" style="fill-rule:evenodd;clip-rule:evenodd;stroke-linejoin:round;stroke-miterlimit:2;">
    <g transform="matrix(1,0,0,1,-290.588277,-730.204691)">
        <g transform="matrix(0.111003,0,0,0.111003,245.318264,502.832874)">
            <g transform="matrix(6.25,0,0,6.25,-1629.314606,855.832729)">
                <path d="M402.497,316.058C409.57,315.841 409.541,315.856 416.555,314.811C426.511,313.327 443.118,303.761 451.882,289.736C470.792,259.475 459.35,224.248 435.56,217.267C428.713,215.257 428.632,215.912 421.503,216.537C416.172,217.004 407.631,213.645 407.156,199.511C407.019,195.431 406.282,190.349 410.466,190.89C414.414,191.401 412.428,194.362 413.804,202.45C415.602,213.017 420.205,209.832 427.5,210.054C454.411,210.874 475.619,238.939 464.622,276.54C457.825,299.781 438.391,314.859 423.423,319.232C388.394,329.466 371.323,311.734 361.39,301.607C353.678,293.743 346.281,300.743 350.681,310.421C353.221,316.009 353.662,315.723 358.134,319.885C375.968,336.484 413.332,340.15 434.251,326.108C442.199,320.772 434.647,334.573 434.763,338.504C434.847,341.362 445.657,342.706 446.546,344.467C448.736,348.804 436.465,346.918 431.512,346.368C428.028,345.981 419.817,346.504 421.179,341.438C422.12,337.941 419.991,338.992 418.47,339.329C397.992,343.863 374.964,338.817 361.181,329.967C337.318,314.647 340.187,295.951 351.439,292.296C366.754,287.321 371.481,316.302 402.497,316.058Z" style="fill:rgb(89,138,101);"/>
            </g>
            <g transform="matrix(6.25,0,0,6.25,-1629.314606,855.832729)">
                <path d="M409.954,249.519C409.685,253.941 409.311,277.286 390.691,285.928C383.565,289.235 374.571,288.111 369.67,286.086C360.321,282.221 354.884,275.17 343.803,281.972C334.438,287.721 322.81,311.336 344.872,332.103C346.573,333.704 353.368,337.522 349.435,340.416C345.722,343.149 337.001,333.702 332.714,327.362C313.599,299.1 338.692,263.659 361.677,275.125C366.776,277.669 385.309,291.046 397.585,271.554C399.055,269.219 405.404,259.139 403.248,237.533C401.807,223.079 389.916,223.714 388.765,202.487C388.518,197.944 387.056,191.067 391.495,190.811C398.398,190.411 388.892,203.457 401.923,220.138C409.466,229.794 410.198,235.73 409.954,249.519Z" style="fill:rgb(89,138,101);"/>
            </g>
            <g transform="matrix(6.25,0,0,6.25,-1629.314606,855.832729)">
                <path d="M449.285,265.77C444.851,261.697 444.633,261.267 444.184,260.985C438.972,257.707 446.718,273.009 425.319,294.32C419.219,300.395 400.568,308.439 400.488,301.5C400.418,295.441 409.313,302.352 423.923,286.905C435.453,274.714 436.208,258.772 436.153,258.667C435.663,257.743 431.845,259.344 431.496,259.49C430.851,259.76 423.967,262.646 422.922,261.17C422.227,260.187 421.896,259.342 432.728,249.756C434.776,247.943 441.029,240.036 444.5,246.5C450.407,257.501 454.813,262.656 454.369,265.471C453.811,269.015 449.616,266.008 449.285,265.77Z" style="fill:rgb(192,151,151);"/>
            </g>
            <g transform="matrix(6.25,0,0,6.25,-1629.314606,855.832729)">
                <path d="M463.929,320.552C464.661,315.857 464.837,314.104 464.893,313.54C465.368,308.791 465.161,301.653 470.435,303.65C475.264,305.479 468.932,322.405 477.432,313.436C482.908,307.658 481.16,298.417 480.406,296.532C475.577,284.461 468.169,284.603 471.936,279.838C475.473,275.366 499.131,299.891 480.731,318.697C476.345,323.18 489.484,319.477 490.617,324.471C491.816,329.76 482.87,328.541 470.494,329.403C461.601,330.022 463.421,324.11 463.929,320.552Z" style="fill:rgb(192,151,151);"/>
            </g>
            <g transform="matrix(6.25,0,0,6.25,-1629.314606,855.832729)">
                <path d="M369.579,249.947C370.375,249.838 378.016,248.792 379.595,249.265C380.917,249.661 382.124,251.713 375.607,254.73C361.726,261.156 354.43,265.796 352.967,256.431C351.468,246.832 346.764,238.399 348.737,236.788C350.89,235.029 353.077,239.678 356.788,244.24C359.179,247.179 359.544,244.067 359.673,243.558C360.253,241.269 363.734,227.529 373.437,217.439C375.359,215.44 380.307,208.672 381.087,215.538C381.17,216.264 381.32,217.585 376.265,223.292C368.104,232.506 365.027,247.935 365.03,248.505C365.043,251.556 366.578,250.194 369.579,249.947Z" style="fill:rgb(192,151,151);"/>
            </g>
        </g>
    </g>
</svg>
